<?xml version="1.0" encoding="UTF-8"?>
<svg id="Layer_2" data-name="Layer 2" xmlns="http://www.w3.org/2000/svg" viewBox="0 0 75 75">
  <defs>
    <style>
      .cls-1 {
        fill: #4285f4;
      }

      .cls-2 {
        fill: #f4b400;
      }

      .cls-3 {
        fill: #0f9d58;
      }

      .cls-4 {
        fill: #db4437;
      }
    </style>
  </defs>
  <g id="Layer_1-2" data-name="Layer 1">
    <g>
      <g>
        <path class="cls-4" d="M31.83,33.72c2.09,2.09,2.09,5.48,0,7.57l-3.78-3.78,3.78-3.78Z"/>
        <path class="cls-4" d="M26.15,39.39l3.78,3.78-9.46,9.46c-2.09,2.09-5.48,2.09-7.57,0l-9.46-9.46,3.78-3.78,9.46,9.46,9.46-9.46Z"/>
        <path class="cls-4" d="M1.57,33.72l3.78,3.78-3.78,3.78c-2.09-2.09-2.09-5.48,0-7.57Z"/>
        <path class="cls-4" d="M20.48,22.37l9.46,9.46-3.78,3.78-9.46-9.46-9.46,9.46-3.78-3.78,9.46-9.46c2.09-2.09,5.48-2.09,7.57,0Z"/>
      </g>
      <g>
        <path class="cls-1" d="M37.5,28.04l3.78,3.78c-2.09,2.09-5.48,2.09-7.57,0l3.78-3.78Z"/>
        <path class="cls-1" d="M41.28,1.57l-3.78,3.78-3.78-3.78c2.09-2.09,5.48-2.09,7.57,0Z"/>
        <path class="cls-1" d="M31.83,3.46l3.78,3.78-9.46,9.46,9.46,9.46-3.78,3.78-9.46-9.46c-2.09-2.09-2.09-5.48,0-7.57L31.83,3.46Z"/>
        <path class="cls-1" d="M43.17,3.46l9.46,9.46c2.09,2.09,2.09,5.48,0,7.57l-9.46,9.46-3.78-3.78,9.46-9.46-9.46-9.46,3.78-3.78Z"/>
      </g>
      <g>
        <path class="cls-3" d="M41.28,43.17l-3.78,3.78-3.78-3.78c2.09-2.09,5.48-2.09,7.57,0Z"/>
        <path class="cls-3" d="M31.83,45.07l3.78,3.78-9.46,9.46,9.46,9.46-3.78,3.78-9.46-9.46c-2.09-2.09-2.09-5.48,0-7.57l9.46-9.46Z"/>
        <path class="cls-3" d="M37.5,69.65l3.78,3.78c-2.09,2.09-5.48,2.09-7.57,0l3.78-3.78Z"/>
        <path class="cls-3" d="M43.17,45.07l9.46,9.46c2.09,2.09,2.09,5.48,0,7.57l-9.46,9.46-3.78-3.78,9.46-9.46-9.46-9.46,3.78-3.78Z"/>
      </g>
      <g>
        <path class="cls-2" d="M43.17,33.72l3.78,3.78-3.78,3.78c-2.09-2.09-2.09-5.48,0-7.57Z"/>
        <path class="cls-2" d="M73.43,33.72c2.09,2.09,2.09,5.48,0,7.57l-3.78-3.78,3.78-3.78Z"/>
        <path class="cls-2" d="M67.76,39.39l3.78,3.78-9.46,9.46c-2.09,2.09-5.48,2.09-7.57,0l-9.46-9.46,3.78-3.78,9.46,9.46,9.46-9.46Z"/>
        <path class="cls-2" d="M62.09,22.37l9.46,9.46-3.78,3.78-9.46-9.46-9.46,9.46-3.78-3.78,9.46-9.46c2.09-2.09,5.48-2.09,7.57,0Z"/>
      </g>
    </g>
  </g>
</svg>