<svg width="131" height="44" viewBox="0 0 131 44" fill="none" xmlns="http://www.w3.org/2000/svg">
<path d="M66.0263 34.4837H61.7287V31.8233H61.6263C60.1938 33.7674 57.431 35.0977 54.8728 35.0977C51.8031 35.0977 49.3473 33.8698 47.6077 31.8233C46.0728 29.9814 45.1519 27.4233 45.1519 24.7628C45.1519 22.1023 45.8682 19.8512 47.7101 17.8047C49.7566 15.5535 52.2124 14.4279 55.0775 14.4279C57.738 14.4279 60.0915 15.6558 61.7287 17.8047V15.0419H66.0263V34.4837ZM55.8961 19.1349C52.417 19.1349 49.9612 21.693 49.9612 25.0698C49.9612 28.2419 52.6217 30.6977 55.7938 30.6977C59.1705 30.6977 61.524 28.2419 61.524 24.8651C61.524 21.5907 59.1705 19.0326 55.8961 19.1349ZM89.4589 34.4837H85.0589V31.8233H84.9566C83.524 33.9721 80.9659 35.0977 78.4077 35.0977C75.5426 35.0977 72.9845 33.7674 71.2449 31.8233C69.6077 29.9814 68.5845 27.4233 68.5845 24.8651C68.5845 22.307 69.5054 19.7488 71.2449 17.8047C72.9845 15.8605 75.8496 14.5302 78.5101 14.5302C80.7612 14.5302 83.1147 15.4512 84.6496 17.1907V8.69767H89.3566V34.4837H89.4589ZM79.124 19.1349C76.0542 19.1349 73.3938 21.7953 73.3938 24.7628C73.3938 27.9349 75.8496 30.6977 79.124 30.6977C82.3984 30.6977 84.9566 28.0372 84.9566 24.8651C85.0589 21.5907 82.3984 19.1349 79.124 19.1349ZM92.4263 30.3907L101.226 19.3395H93.4496V15.2465H106.854V19.3395L98.1566 30.3907H107.571V34.4837H92.4263V30.3907ZM127.626 15.1442V34.4837H123.226V32.4372H123.124C122.101 34.2791 120.259 35.0977 118.11 35.0977C115.757 35.0977 113.505 34.1767 111.868 32.4372C110.129 30.5953 110.026 28.5488 110.026 26.093V15.1442H114.733V24.6605C114.733 25.8884 114.733 27.5256 115.347 28.6512C115.961 29.8791 117.291 30.5953 118.724 30.5953C122.305 30.5953 122.817 27.4233 122.817 24.6605V15.1442H127.626ZM131.412 15.1442H135.812V16.8837H135.915C137.143 15.2465 139.189 14.4279 141.338 14.4279C143.487 14.4279 145.533 15.3488 146.966 16.8837L147.477 17.3953C149.012 19.4419 149.012 21.8977 149.012 24.3535V34.3814H144.305V25.2744C144.305 23.7395 144.305 21.8977 143.487 20.5674C142.771 19.5442 141.543 18.9302 140.315 18.9302C138.984 18.9302 137.654 19.5442 137.04 20.6698C136.222 22 136.222 24.0465 136.222 25.5814V34.3814H131.515V15.1442H131.412ZM172.854 34.4837H168.557V31.8233H168.454C167.022 33.7674 164.259 35.0977 161.701 35.0977C158.631 35.0977 156.175 33.8698 154.436 31.8233C152.901 29.9814 151.98 27.4233 151.98 24.7628C151.98 22.1023 152.696 19.8512 154.538 17.8047C156.584 15.5535 159.04 14.4279 161.905 14.4279C164.566 14.4279 166.919 15.6558 168.557 17.8047V15.0419H172.854V34.4837ZM162.622 19.1349C159.143 19.1349 156.687 21.693 156.687 25.0698C156.687 28.2419 159.347 30.6977 162.519 30.6977C165.896 30.6977 168.25 28.2419 168.25 24.8651C168.352 21.5907 165.998 19.0326 162.622 19.1349ZM41.4682 22.7163C41.4682 15.6558 38.9101 9.82326 33.9984 5.73023C29.5984 2.04651 23.3566 0 16.5008 0V5.62791C22.0263 5.62791 26.8356 7.16279 30.2124 10.0279C33.7938 12.9953 35.6356 17.3954 35.6356 22.7163C35.6356 31.3116 28.4728 38.2698 19.7752 38.2698C12.6124 38.2698 6.6775 32.5395 6.6775 25.4791C6.6775 22.7163 7.80308 20.0558 9.74727 18.214C11.7938 16.2698 14.4542 15.2465 17.3194 15.2465C19.7752 15.2465 21.924 15.9628 23.4589 17.1907C24.8915 18.4186 25.7101 20.2605 25.7101 22.4093C25.7101 26.093 22.9473 28.7535 19.0589 28.7535V34.3814C26.1194 34.3814 31.4403 29.2651 31.4403 22.4093C31.4403 18.6233 29.9054 15.2465 27.2449 12.893C24.6868 10.7442 21.2077 9.51628 17.3194 9.51628C12.9194 9.51628 8.82634 11.1535 5.65424 14.1209C2.6868 17.1907 0.947266 21.1814 0.947266 25.4791C0.947266 35.7116 9.44029 44 19.7752 44C31.7473 44 41.4682 34.4837 41.4682 22.7163Z" fill="#279B37"/>
</svg>
