<svg width="82" height="48" viewBox="0 0 82 48" fill="none" xmlns="http://www.w3.org/2000/svg">
<path d="M21.4765 36.134L25.6536 25.1921H27.2617L31.4203 36.134H29.9602L28.7957 33.1767H24.0271L22.8627 36.134H21.458H21.4765ZM24.4522 31.9384H28.4076L26.4299 26.6708L24.4707 31.9384H24.4522Z" fill="#0A294F"/>
<path d="M33.2874 25.3215C33.4353 25.4694 33.5277 25.6727 33.5277 25.913C33.5277 26.1533 33.4538 26.3566 33.2874 26.5044C33.1396 26.6523 32.9363 26.7447 32.696 26.7447C32.4557 26.7447 32.2524 26.6708 32.1045 26.5044C31.9567 26.3566 31.8643 26.1533 31.8643 25.913C31.8643 25.6727 31.9382 25.4694 32.1045 25.3215C32.2524 25.1737 32.4557 25.0813 32.696 25.0813C32.9363 25.0813 33.1396 25.1552 33.2874 25.3215ZM32.0676 28.1679H33.3429V36.134H32.0676V28.1679Z" fill="#0A294F"/>
<path d="M38.9999 28.1679V29.4247H38.353C37.5952 29.4247 37.0407 29.6835 36.7265 30.1825C36.3938 30.7 36.2275 31.3284 36.2275 32.0678V36.134H34.9521V28.1679H36.0611L36.2275 29.3693C36.4493 28.9996 36.745 28.7224 37.1147 28.5006C37.4843 28.2788 37.9834 28.1679 38.6303 28.1679H38.9814H38.9999Z" fill="#0A294F"/>
<path d="M45.9134 28.556C46.4863 28.8702 46.9484 29.3508 47.2811 29.9607C47.6138 30.5707 47.7801 31.31 47.7801 32.1417C47.7801 32.9734 47.6138 33.6573 47.2811 34.2672C46.9484 34.8772 46.5048 35.3577 45.9134 35.7089C45.3219 36.0601 44.675 36.2264 43.9542 36.2264C43.2333 36.2264 42.7528 36.1155 42.2907 35.8752C41.8286 35.635 41.4774 35.3208 41.2187 34.9141V39.2576H39.9434V28.1679H41.0523L41.2187 29.4432C41.8841 28.5191 42.7897 28.0755 43.9542 28.0755C45.1186 28.0755 45.3589 28.2418 45.9318 28.556H45.9134ZM45.7285 34.2672C46.2091 33.7127 46.4494 33.0104 46.4494 32.1602C46.4494 31.31 46.2091 30.5891 45.7285 30.0531C45.248 29.4986 44.6011 29.2399 43.8248 29.2399C43.0485 29.2399 42.8637 29.3693 42.457 29.6095C42.0504 29.8498 41.7547 30.201 41.5329 30.6446C41.3111 31.0882 41.2002 31.5872 41.2002 32.1602C41.2002 32.7332 41.3111 33.2507 41.5329 33.6943C41.7547 34.1378 42.0689 34.5075 42.457 34.7478C42.8452 34.9881 43.3073 35.1174 43.8248 35.1174C44.6196 35.1174 45.248 34.8402 45.7285 34.3042V34.2672Z" fill="#0A294F"/>
<path d="M50.4584 35.7089C49.867 35.3577 49.3864 34.8956 49.0537 34.2672C48.721 33.6573 48.5547 32.9364 48.5547 32.1417C48.5547 31.3469 48.721 30.6261 49.0537 30.0162C49.3864 29.4062 49.8485 28.9257 50.4584 28.5745C51.0499 28.2233 51.7338 28.057 52.51 28.057C53.2863 28.057 53.9702 28.2233 54.5617 28.5745C55.1531 28.9257 55.6337 29.3877 55.9664 30.0162C56.2991 30.6261 56.4654 31.3469 56.4654 32.1417C56.4654 32.9364 56.2991 33.6573 55.9664 34.2672C55.6337 34.8771 55.1716 35.3577 54.5617 35.7089C53.9702 36.0601 53.2863 36.2264 52.51 36.2264C51.7338 36.2264 51.0499 36.0601 50.4584 35.7089ZM53.8963 34.7108C54.3029 34.452 54.5986 34.1194 54.8204 33.6573C55.0422 33.2137 55.1531 32.6962 55.1531 32.1417C55.1531 31.5872 55.0422 31.0697 54.8204 30.6261C54.5986 30.1825 54.2844 29.8313 53.8963 29.5726C53.4896 29.3138 53.0276 29.2029 52.51 29.2029C51.9925 29.2029 51.5305 29.3323 51.1238 29.5726C50.7172 29.8313 50.4215 30.164 50.1997 30.6261C49.9779 31.0697 49.867 31.5872 49.867 32.1417C49.867 32.6962 49.9779 33.2137 50.1997 33.6573C50.4215 34.1009 50.7357 34.452 51.1238 34.7108C51.5305 34.9696 51.9925 35.0805 52.51 35.0805C53.0276 35.0805 53.4896 34.9511 53.8963 34.7108Z" fill="#0A294F"/>
<path d="M61.5859 28.1679V29.4247H60.939C60.1811 29.4247 59.6267 29.6835 59.3125 30.1825C58.9798 30.7 58.8134 31.3284 58.8134 32.0678V36.134H57.5381V28.1679H58.6471L58.8134 29.3693C59.0352 28.9996 59.3309 28.7224 59.7006 28.5006C60.0703 28.2788 60.5693 28.1679 61.2162 28.1679H61.5674H61.5859Z" fill="#0A294F"/>
<path d="M62.5098 25.9315H63.7851V28.1679H65.7997V29.3323H63.7851V34.027C63.7851 34.3597 63.8405 34.5999 63.9884 34.7293C64.1363 34.8587 64.3396 34.9326 64.6723 34.9326H66.0585V36.097H64.5983C63.8405 36.097 63.323 35.9307 62.9903 35.598C62.6761 35.2653 62.5098 34.7478 62.5098 34.027V25.913V25.9315Z" fill="#0A294F"/>
<path d="M26.7081 12.0324C27.9095 12.0324 28.8336 12.2911 29.499 12.7902C30.1644 13.2892 30.4971 13.9916 30.4971 14.8787C30.4971 15.7659 30.3307 16.0801 29.9796 16.4867C29.6284 16.9118 29.1293 17.1891 28.464 17.3369C30.0905 17.6142 30.9222 18.4829 30.9222 19.9061C30.9222 21.3292 30.571 21.6065 29.8687 22.1425C29.1663 22.6785 28.1682 22.9557 26.8559 22.9557H22.6973V12.0139H26.7081V12.0324ZM24.4901 16.6716H26.7635C27.3735 16.6716 27.854 16.5237 28.1867 16.2465C28.5194 15.9692 28.6858 15.5811 28.6858 15.082C28.6858 14.583 28.5194 14.2133 28.1867 13.9361C27.854 13.6589 27.3735 13.5295 26.7635 13.5295H24.4901V16.6716ZM24.4901 21.4586H26.8559C27.5583 21.4586 28.1128 21.3108 28.4824 21.0335C28.8706 20.7563 29.0554 20.3497 29.0554 19.8321C29.0554 19.3146 28.8706 18.8895 28.4824 18.5938C28.0943 18.2981 27.5583 18.1502 26.8559 18.1502H24.4901V21.4401V21.4586Z" fill="#0A294F"/>
<path d="M36.3012 14.9711V16.5422H35.5434C34.8411 16.5422 34.342 16.764 34.0278 17.226C33.7136 17.6881 33.5657 18.2611 33.5657 18.9449V22.9557H31.8838V14.9526H33.3809L33.5657 16.154C33.7875 15.7844 34.0833 15.4886 34.4529 15.2668C34.8226 15.0451 35.3031 14.9526 35.9131 14.9526H36.2827L36.3012 14.9711Z" fill="#0A294F"/>
<path d="M38.7226 12.0693C38.9259 12.2542 39.0183 12.5129 39.0183 12.7902C39.0183 13.0674 38.9259 13.3262 38.7226 13.511C38.5193 13.6958 38.279 13.8067 37.9833 13.8067C37.6876 13.8067 37.4473 13.7143 37.244 13.511C37.0407 13.3262 36.9482 13.0674 36.9482 12.7902C36.9482 12.5129 37.0407 12.2542 37.244 12.0693C37.4473 11.8845 37.6876 11.7736 37.9833 11.7736C38.279 11.7736 38.5193 11.866 38.7226 12.0693ZM37.1516 14.9712H38.8335V22.9742H37.1516V14.9712Z" fill="#0A294F"/>
<path d="M41.439 20.3311C41.476 20.7562 41.6608 21.0889 42.0305 21.3477C42.3816 21.6065 42.8622 21.7543 43.4352 21.7543C44.0081 21.7543 44.3593 21.6619 44.6735 21.4586C44.9877 21.2738 45.1541 21.015 45.1541 20.6823C45.1541 20.3496 45.0802 20.2018 44.9323 20.0724C44.7844 19.943 44.5996 19.8321 44.3408 19.7767C44.0821 19.7212 43.7124 19.6658 43.2134 19.5918C42.511 19.5179 41.938 19.3885 41.4945 19.2591C41.0324 19.1113 40.6812 18.8895 40.404 18.5938C40.1267 18.2795 39.9973 17.8729 39.9973 17.3554C39.9973 16.8379 40.1267 16.4313 40.404 16.0431C40.6812 15.655 41.0509 15.3777 41.5499 15.1559C42.0305 14.9526 42.5849 14.8417 43.1949 14.8417C44.2114 14.8417 45.0247 15.0635 45.6531 15.5071C46.2815 15.9507 46.6327 16.5791 46.6697 17.3924H45.0247C44.9877 17.0227 44.8029 16.727 44.4702 16.4867C44.156 16.2464 43.7494 16.1355 43.2503 16.1355C42.7513 16.1355 42.3632 16.228 42.0674 16.4128C41.7717 16.5976 41.6054 16.8564 41.6054 17.1706C41.6054 17.4848 41.6793 17.5957 41.8271 17.7066C41.975 17.8175 42.1598 17.9099 42.4001 17.9653C42.6219 18.0208 42.9916 18.0578 43.5091 18.1317C44.193 18.2056 44.7659 18.3165 45.2465 18.4644C45.7086 18.6122 46.0967 18.8525 46.374 19.1852C46.6512 19.5179 46.7991 19.9615 46.7991 20.516C46.7991 21.0705 46.6512 21.4586 46.3555 21.8283C46.0597 22.2164 45.6531 22.4936 45.1541 22.6969C44.6366 22.9003 44.0636 22.9927 43.4352 22.9927C42.3632 22.9927 41.4945 22.7524 40.8291 22.2718C40.1637 21.7913 39.831 21.1259 39.8125 20.2572H41.439V20.3311Z" fill="#0A294F"/>
<path d="M54.0999 15.3777C54.6728 15.7104 55.1164 16.1725 55.4491 16.7824C55.7633 17.3923 55.9297 18.1317 55.9297 18.9634C55.9297 19.7951 55.7633 20.479 55.4491 21.0889C55.1349 21.7173 54.6728 22.1979 54.0999 22.5306C53.5269 22.8818 52.88 23.0481 52.1407 23.0481C51.4013 23.0481 51.0317 22.9372 50.5881 22.7154C50.1445 22.4936 49.7933 22.1794 49.5346 21.8097L49.3312 22.9742H47.8711V12.0323H49.553V16.154C50.1815 15.3038 51.0502 14.8787 52.1407 14.8787C53.2312 14.8787 53.5269 15.045 54.0999 15.3777ZM53.5638 20.9041C53.989 20.4051 54.2108 19.7582 54.2108 18.9819C54.2108 18.2056 53.989 17.5587 53.5638 17.0781C53.1387 16.5791 52.5658 16.3388 51.8634 16.3388C51.1611 16.3388 50.6066 16.5791 50.1815 17.0781C49.7564 17.5587 49.5346 18.2056 49.5346 18.9819C49.5346 19.7582 49.7564 20.4235 50.1815 20.9226C50.6066 21.4216 51.1795 21.6804 51.8634 21.6804C52.5473 21.6804 53.1203 21.4401 53.5638 20.9411V20.9041Z" fill="#0A294F"/>
<path d="M64.3762 21.4956V22.9557H63.4891C62.9715 22.9557 62.6019 22.8448 62.3616 22.623C62.1398 22.4012 62.0104 22.087 62.0104 21.6619C61.4005 22.586 60.5318 23.0296 59.3674 23.0296C58.2029 23.0296 57.7593 22.8263 57.2049 22.4012C56.6688 21.9761 56.3916 21.4031 56.3916 20.6823C56.3916 19.9615 56.6873 19.2222 57.2603 18.7786C57.8518 18.335 58.6835 18.1132 59.811 18.1132H61.8256V17.6326C61.8256 17.189 61.6777 16.8379 61.3635 16.5791C61.0493 16.3204 60.6242 16.191 60.0697 16.191C59.5152 16.191 59.1825 16.3019 58.8498 16.5052C58.5356 16.727 58.3508 17.0042 58.2769 17.3554H56.6134C56.6873 16.5606 57.057 15.9322 57.6669 15.4886C58.2953 15.045 59.1086 14.8232 60.1252 14.8232C61.1417 14.8232 62.0289 15.082 62.6019 15.581C63.1933 16.0801 63.4706 16.8009 63.4706 17.7435V20.9041C63.4706 21.2738 63.6554 21.4586 64.0066 21.4586H64.3393L64.3762 21.4956ZM61.8441 19.407H59.7555C59.238 19.407 58.8314 19.4994 58.5541 19.7027C58.2769 19.906 58.129 20.2018 58.129 20.6084C58.129 21.015 58.2584 21.2368 58.5356 21.4401C58.7944 21.6434 59.164 21.7543 59.6261 21.7543C60.3285 21.7543 60.8645 21.5695 61.2526 21.1998C61.6408 20.8302 61.8441 20.3311 61.8626 19.7027V19.4255L61.8441 19.407Z" fill="#0A294F"/>
<path d="M71.5294 15.7474C72.1208 16.3389 72.435 17.263 72.435 18.5568V22.9557H70.7346V18.6492C70.7346 17.8914 70.5683 17.3185 70.2541 16.9118C69.9398 16.5237 69.4593 16.3204 68.8309 16.3204C68.2024 16.3204 67.648 16.5607 67.2598 17.0227C66.8717 17.4848 66.6868 18.1317 66.6868 18.945V22.9742H65.0049V14.9711H66.465L66.6499 16.0247C67.2598 15.2669 68.11 14.8787 69.219 14.8787C70.328 14.8787 70.9379 15.1744 71.5294 15.7474Z" fill="#0A294F"/>
<path d="M73.7665 16.8194C74.0992 16.2095 74.5612 15.7289 75.1342 15.3778C75.7257 15.0451 76.3911 14.8787 77.1489 14.8787C77.9067 14.8787 78.5905 15.0266 79.182 15.3408C79.7734 15.655 80.2355 16.0986 80.5682 16.6716C80.9009 17.2445 81.0857 17.9099 81.0857 18.6862C81.0857 18.8895 81.0857 19.1113 81.0488 19.3331H75.0233V19.4255C75.0603 20.1279 75.2821 20.6823 75.6702 21.089C76.0584 21.4956 76.5944 21.6989 77.2413 21.6989C77.8882 21.6989 78.2024 21.5695 78.5536 21.3292C78.9047 21.089 79.145 20.7378 79.2559 20.2942H80.9379C80.79 21.1074 80.4019 21.7728 79.755 22.2903C79.1081 22.8079 78.3133 23.0666 77.3522 23.0666C76.3911 23.0666 75.7996 22.9003 75.1712 22.5676C74.5428 22.2349 74.0807 21.7543 73.7295 21.1444C73.3968 20.5345 73.2305 19.8136 73.2305 19.0004C73.2305 18.1872 73.3968 17.4478 73.7295 16.8379L73.7665 16.8194ZM79.4038 18.0947C79.3299 17.5033 79.1081 17.0597 78.7014 16.727C78.3133 16.3943 77.8142 16.228 77.2228 16.228C76.6313 16.228 76.1877 16.3943 75.7996 16.727C75.393 17.0597 75.1712 17.5218 75.0973 18.0763H79.3853L79.4038 18.0947Z" fill="#0A294F"/>
<path d="M14.5287 11.7181C10.9061 7.6519 3.29107 2.6985 3.93798 3.14209C4.58488 3.58567 1.16553 1.42318 0.869803 0H0.537109C0.537109 0.0184829 1.2025 6.17327 1.2025 6.17327C1.38733 7.79977 2.81052 8.89025 4.40005 9.57412C4.40005 9.57412 11.8672 13.2522 14.1406 15.0266C16.3955 16.8009 16.5249 18.0208 16.5249 18.0208C16.5249 18.0208 17.3936 14.9341 14.5287 11.7181Z" fill="url(#paint0_linear_2033_573)"/>
<path d="M16.5249 18.0023C16.5249 18.0023 16.414 19.2222 14.1406 20.9965C11.8857 22.7709 4.38157 26.4859 4.38157 26.4859C2.79203 27.1883 1.35036 28.2603 1.18401 29.8868L0.537109 36.0231H0.869803C1.16553 34.6184 4.60336 32.4374 3.93798 32.8995C3.29107 33.3431 10.9061 28.3712 14.5472 24.2865C17.4121 21.0705 16.5249 17.9838 16.5249 17.9838V18.0023Z" fill="url(#paint1_linear_2033_573)"/>
<path d="M14.5287 23.695C10.9061 19.6288 3.29107 14.6754 3.93798 15.119C4.58488 15.5626 1.16553 13.4001 0.869803 11.9769H0.537109C0.537109 11.9954 1.2025 18.1502 1.2025 18.1502C1.38733 19.7767 2.81052 20.8672 4.40005 21.551C4.40005 21.551 11.8672 25.2291 14.1406 27.0035C16.3955 28.7778 16.5249 29.9977 16.5249 29.9977C16.5249 29.9977 17.3936 26.911 14.5287 23.695Z" fill="url(#paint2_linear_2033_573)"/>
<path d="M16.5249 29.9792C16.5249 29.9792 16.414 31.1991 14.1406 32.9734C11.8857 34.7478 4.38157 38.4628 4.38157 38.4628C2.79203 39.1652 1.35036 40.2372 1.18401 41.8637L0.537109 48H0.869803C1.16553 46.5953 4.60336 44.4143 3.93798 44.8764C3.29107 45.32 10.9061 40.3481 14.5472 36.2634C17.4121 33.0474 16.5249 29.9607 16.5249 29.9607V29.9792Z" fill="url(#paint3_linear_2033_573)"/>
<defs>
<linearGradient id="paint0_linear_2033_573" x1="0.869803" y1="9.01963" x2="17.0424" y2="8.98267" gradientUnits="userSpaceOnUse">
<stop stop-color="#008FE3"/>
<stop offset="1" stop-color="#1B096F"/>
</linearGradient>
<linearGradient id="paint1_linear_2033_573" x1="0.66649" y1="27.0589" x2="16.8576" y2="27.0219" gradientUnits="userSpaceOnUse">
<stop stop-color="#FFC000"/>
<stop offset="0.2" stop-color="#FFC000"/>
<stop offset="1" stop-color="#FF5E00"/>
</linearGradient>
<linearGradient id="paint2_linear_2033_573" x1="0.85132" y1="20.9965" x2="17.0424" y2="20.9596" gradientUnits="userSpaceOnUse">
<stop stop-color="#00B2FC"/>
<stop offset="1" stop-color="#1B096F"/>
</linearGradient>
<linearGradient id="paint3_linear_2033_573" x1="0.66649" y1="39.0358" x2="16.8576" y2="38.9988" gradientUnits="userSpaceOnUse">
<stop stop-color="#CBD700"/>
<stop offset="0.6" stop-color="#2FBE02"/>
<stop offset="1" stop-color="#008C33"/>
</linearGradient>
</defs>
</svg>
