<svg width="21" height="21" viewBox="0 0 21 21" fill="none" xmlns="http://www.w3.org/2000/svg">
<path d="M19.0733 15.6259C19.0733 15.9259 19.0066 16.2342 18.865 16.5342C18.7233 16.8342 18.54 17.1175 18.2983 17.3842C17.89 17.8342 17.44 18.1592 16.9316 18.3675C16.4316 18.5759 15.89 18.6842 15.3066 18.6842C14.4566 18.6842 13.5483 18.4842 12.59 18.0759C11.6316 17.6675 10.6733 17.1175 9.72331 16.4259C8.76497 15.7259 7.85664 14.9509 6.98997 14.0925C6.13164 13.2259 5.35664 12.3175 4.66497 11.3675C3.98164 10.4175 3.43164 9.46752 3.03164 8.52585C2.63164 7.57585 2.43164 6.66752 2.43164 5.80085C2.43164 5.23418 2.53164 4.69252 2.73164 4.19252C2.93164 3.68418 3.24831 3.21752 3.68997 2.80085C4.22331 2.27585 4.80664 2.01752 5.42331 2.01752C5.65664 2.01752 5.88997 2.06752 6.09831 2.16752C6.31497 2.26752 6.50664 2.41752 6.65664 2.63418L8.58997 5.35918C8.73997 5.56752 8.84831 5.75918 8.92331 5.94252C8.99831 6.11752 9.03997 6.29252 9.03997 6.45085C9.03997 6.65085 8.98164 6.85085 8.86497 7.04252C8.75664 7.23418 8.59831 7.43418 8.39831 7.63418L7.76497 8.29252C7.67331 8.38418 7.63164 8.49252 7.63164 8.62585C7.63164 8.69252 7.63997 8.75085 7.65664 8.81752C7.68164 8.88418 7.70664 8.93418 7.72331 8.98418C7.87331 9.25918 8.13164 9.61752 8.49831 10.0509C8.87331 10.4842 9.27331 10.9259 9.70664 11.3675C10.1566 11.8092 10.59 12.2175 11.0316 12.5925C11.465 12.9592 11.8233 13.2092 12.1066 13.3592C12.1483 13.3759 12.1983 13.4009 12.2566 13.4259C12.3233 13.4509 12.39 13.4592 12.465 13.4592C12.6066 13.4592 12.715 13.4092 12.8066 13.3175L13.44 12.6925C13.6483 12.4842 13.8483 12.3259 14.04 12.2259C14.2316 12.1092 14.4233 12.0509 14.6316 12.0509C14.79 12.0509 14.9566 12.0842 15.14 12.1592C15.3233 12.2342 15.515 12.3425 15.7233 12.4842L18.4816 14.4425C18.6983 14.5925 18.8483 14.7675 18.94 14.9759C19.0233 15.1842 19.0733 15.3925 19.0733 15.6259Z" stroke="#808080" stroke-width="1.5" stroke-miterlimit="10"/>
<path d="M16.1813 7.85081C16.1813 7.35081 15.7896 6.58414 15.2063 5.95914C14.673 5.38414 13.9646 4.93414 13.2646 4.93414" stroke="#808080" stroke-width="1.5" stroke-linecap="round" stroke-linejoin="round"/>
<path d="M19.098 7.85085C19.098 4.62585 16.4896 2.01752 13.2646 2.01752" stroke="#808080" stroke-width="1.5" stroke-linecap="round" stroke-linejoin="round"/>
</svg>
