<svg width="136" height="48" viewBox="0 0 136 48" fill="none" xmlns="http://www.w3.org/2000/svg">
<g clip-path="url(#clip0_2033_537)">
<path d="M27.9764 16.7003C23.0956 16.7003 19.282 20.4054 19.282 25.3654C19.282 30.3254 22.9993 33.9988 27.9764 33.9988C32.9534 33.9988 36.7353 30.262 36.7353 25.3337C36.7353 20.4371 33.0181 16.7003 27.9764 16.7003ZM28.0093 30.4242C25.2299 30.4242 23.1932 28.2656 23.1932 25.3666C23.1932 22.4348 25.1969 20.2774 27.9764 20.2774C30.7887 20.2774 32.8242 22.4677 32.8242 25.3666C32.8242 28.2656 30.7887 30.4242 28.0093 30.4242ZM37.8013 20.47H40.2256V33.678H44.1038V17.0223H37.8013V20.47ZM9.52176 20.2761C11.5585 20.2761 13.1744 21.5323 13.7878 23.4007H17.8929C17.149 19.4066 13.8525 16.7003 9.55469 16.7003C4.67395 16.7003 0.860352 20.4054 0.860352 25.3666C0.860352 30.3279 4.57761 34 9.55469 34C13.7561 34 17.1173 31.2938 17.8612 27.2667H13.7878C13.2061 29.1351 11.5901 30.4242 9.55349 30.4242C6.74114 30.4242 4.77029 28.2656 4.77029 25.3666C4.77153 22.4348 6.71065 20.2761 9.52176 20.2761ZM111.49 23.7556L108.646 23.3373C107.289 23.1446 106.319 22.6933 106.319 21.6299C106.319 20.47 107.58 19.8907 109.293 19.8907C111.167 19.8907 112.364 20.6957 112.622 22.0165H116.371C115.95 18.6663 113.365 16.7016 109.39 16.7016C105.285 16.7016 102.57 18.7956 102.57 21.7591C102.57 24.5934 104.348 26.2374 107.935 26.7521L110.779 27.1704C112.17 27.3631 112.945 27.9119 112.945 28.9424C112.945 30.2632 111.588 30.8108 109.713 30.8108C107.418 30.8108 106.125 29.8766 105.932 28.4595H102.118C102.474 31.7133 105.027 34 109.68 34C113.915 34 116.726 32.067 116.726 28.7485C116.726 25.7849 114.69 24.2385 111.49 23.7556ZM42.1647 10.161C40.7427 10.161 39.6758 11.1915 39.6758 12.6087C39.6758 14.0258 40.7416 15.0563 42.1647 15.0563C43.5867 15.0563 44.654 14.0258 44.654 12.6087C44.654 11.1915 43.5867 10.161 42.1647 10.161ZM99.08 22.725C99.08 19.1175 96.8825 16.7016 92.2283 16.7016C87.833 16.7016 85.3767 18.9249 84.8915 22.3396H88.7378C88.9317 21.0189 89.966 19.9237 92.1638 19.9237C94.136 19.9237 95.1053 20.7932 95.1053 21.8567C95.1053 23.2422 93.3271 23.5958 91.1296 23.8215C88.1562 24.1434 84.4718 25.1739 84.4718 29.04C84.4718 32.0365 86.7023 33.9683 90.2577 33.9683C93.0368 33.9683 94.7821 32.8085 95.6555 30.9718C95.7848 32.6146 97.013 33.678 98.7263 33.678H100.989V30.2315H99.0811V22.725H99.08ZM95.2662 26.9131C95.2662 29.1363 93.3271 30.7791 90.9672 30.7791C89.5126 30.7791 88.2845 30.1669 88.2845 28.879C88.2845 27.2362 90.2562 26.785 92.0663 26.5923C93.8116 26.4313 94.781 26.0447 95.2662 25.3032V26.9131ZM74.6787 16.7003C72.5127 16.7003 70.703 17.6028 69.4103 19.1163V10H65.5321V33.678H69.3455V31.4877C70.6381 33.0658 72.4812 34 74.6787 34C79.3325 34 82.856 30.3279 82.856 25.3666C82.856 20.4054 79.268 16.7003 74.6787 16.7003ZM74.0971 30.4242C71.3176 30.4242 69.281 28.2656 69.281 25.3666C69.281 22.4677 71.3495 20.2774 74.1286 20.2774C76.9411 20.2774 78.9117 22.436 78.9117 25.3666C78.9117 28.2656 76.8762 30.4242 74.0971 30.4242ZM56.2557 16.7003C53.735 16.7003 52.0861 17.7309 51.1167 19.1809V17.0223H47.27V33.6768H51.1482V24.6252C51.1482 22.0799 52.7641 20.2761 55.1558 20.2761C57.3863 20.2761 58.7753 21.8543 58.7753 24.1422V33.678H62.6536V23.8531C62.6551 19.6639 60.4902 16.7003 56.2557 16.7003ZM135.213 24.8191C135.213 20.0517 131.723 16.7016 127.036 16.7016C122.059 16.7016 118.407 20.4383 118.407 25.3666C118.407 30.5535 122.318 34 127.101 34C131.141 34 134.309 31.6157 135.116 28.2339H131.075C130.494 29.7156 129.072 30.5535 127.164 30.5535C124.675 30.5535 122.801 29.0071 122.381 26.3008H135.212V24.8191H135.213ZM122.608 23.53C123.223 21.2103 124.968 20.0835 126.972 20.0835C129.169 20.0835 130.85 21.3396 131.238 23.53H122.608Z" fill="#0052FF"/>
</g>
<defs>
<clipPath id="clip0_2033_537">
<rect width="135" height="48" fill="white" transform="translate(0.860352)"/>
</clipPath>
</defs>
</svg>
