<svg width="40" height="40" viewBox="0 0 40 40" fill="none" xmlns="http://www.w3.org/2000/svg">
<path d="M16.976 17.984C18.0906 19.0987 18.0906 20.9067 16.976 22.0213L14.96 20.0053L16.976 17.9893V17.984Z" fill="#DB4437"/>
<path d="M13.946 21.0081L15.962 23.0241L10.9167 28.0694C9.80198 29.1841 7.99398 29.1841 6.87932 28.0694L1.83398 23.0241L3.84998 21.0081L8.89532 26.0534L13.9407 21.0081H13.946Z" fill="#DB4437"/>
<path d="M0.836977 17.9841L2.85298 20.0001L0.836977 22.0161C-0.27769 20.9014 -0.27769 19.0934 0.836977 17.9788V17.9841Z" fill="#DB4437"/>
<path d="M10.9221 11.9307L15.9674 16.9761L13.9514 18.9921L8.90606 13.9467L3.86073 18.9921L1.84473 16.9761L6.89006 11.9307C8.00473 10.8161 9.81273 10.8161 10.9274 11.9307H10.9221Z" fill="#DB4437"/>
<path d="M19.9998 14.9547L22.0158 16.9707C20.9012 18.0854 19.0932 18.0854 17.9785 16.9707L19.9945 14.9547H19.9998Z" fill="#4285F4"/>
<path d="M22.0164 0.837343L20.0004 2.85334L17.9844 0.837343C19.099 -0.277324 20.907 -0.277324 22.0217 0.837343H22.0164Z" fill="#4285F4"/>
<path d="M16.9761 1.84534L18.9921 3.86134L13.9467 8.90667L18.9921 13.952L16.9761 15.968L11.9307 10.9227C10.8161 9.808 10.8161 8 11.9307 6.88534L16.9761 1.84534Z" fill="#4285F4"/>
<path d="M23.0238 1.84534L28.0691 6.89067C29.1838 8.00534 29.1838 9.81334 28.0691 10.928L23.0238 15.9733L21.0078 13.9573L26.0531 8.912L21.0078 3.86667L23.0238 1.85067V1.84534Z" fill="#4285F4"/>
<path d="M22.0164 23.024L20.0004 25.04L17.9844 23.024C19.099 21.9093 20.907 21.9093 22.0217 23.024H22.0164Z" fill="#0F9D58"/>
<path d="M16.9761 24.0373L18.9921 26.0533L13.9467 31.0986L18.9921 36.144L16.9761 38.16L11.9307 33.1146C10.8161 32 10.8161 30.192 11.9307 29.0773L16.9761 24.032V24.0373Z" fill="#0F9D58"/>
<path d="M19.9998 37.1466L22.0158 39.1626C20.9012 40.2773 19.0932 40.2773 17.9785 39.1626L19.9945 37.1466H19.9998Z" fill="#0F9D58"/>
<path d="M23.0238 24.0374L28.0691 29.0827C29.1838 30.1974 29.1838 32.0054 28.0691 33.12L23.0238 38.1654L21.0078 36.1494L26.0531 31.104L21.0078 26.0587L23.0238 24.0427V24.0374Z" fill="#0F9D58"/>
<path d="M23.0235 17.9841L25.0395 20.0001L23.0235 22.0161C21.9088 20.9014 21.9088 19.0934 23.0235 17.9788V17.9841Z" fill="#F4B400"/>
<path d="M39.1625 17.984C40.2772 19.0987 40.2772 20.9067 39.1625 22.0213L37.1465 20.0053L39.1625 17.9893V17.984Z" fill="#F4B400"/>
<path d="M36.1384 21.0081L38.1544 23.0241L33.109 28.0694C31.9944 29.1841 30.1864 29.1841 29.0717 28.0694L24.0264 23.0241L26.0424 21.0081L31.0877 26.0534L36.133 21.0081H36.1384Z" fill="#F4B400"/>
<path d="M33.1144 11.9307L38.1598 16.9761L36.1438 18.9921L31.0984 13.9467L26.0531 18.9921L24.0371 16.9761L29.0824 11.9307C30.1971 10.8161 32.0051 10.8161 33.1198 11.9307H33.1144Z" fill="#F4B400"/>
</svg>
