<?xml version="1.0" encoding="UTF-8"?>
<svg id="Layer_2" data-name="Layer 2" xmlns="http://www.w3.org/2000/svg" viewBox="0 0 296.19 75">
  <defs>
    <style>
      .cls-1 {
        fill: #4285f4;
      }

      .cls-2 {
        fill: #f4b400;
      }

      .cls-3 {
        fill: #0f9d58;
      }

      .cls-4 {
        fill: #db4437;
      }
    </style>
  </defs>
  <g id="Layer_1-2" data-name="Layer 1">
    <g>
      <g>
        <g>
          <path class="cls-4" d="M31.83,33.72c2.09,2.09,2.09,5.48,0,7.57l-3.78-3.78,3.78-3.78Z"/>
          <path class="cls-4" d="M26.15,39.39l3.78,3.78-9.46,9.46c-2.09,2.09-5.48,2.09-7.57,0l-9.46-9.46,3.78-3.78,9.46,9.46,9.46-9.46Z"/>
          <path class="cls-4" d="M1.57,33.72l3.78,3.78-3.78,3.78c-2.09-2.09-2.09-5.48,0-7.57Z"/>
          <path class="cls-4" d="M20.48,22.37l9.46,9.46-3.78,3.78-9.46-9.46-9.46,9.46-3.78-3.78,9.46-9.46c2.09-2.09,5.48-2.09,7.57,0Z"/>
        </g>
        <g>
          <path class="cls-1" d="M37.5,28.04l3.78,3.78c-2.09,2.09-5.48,2.09-7.57,0l3.78-3.78Z"/>
          <path class="cls-1" d="M41.28,1.57l-3.78,3.78-3.78-3.78c2.09-2.09,5.48-2.09,7.57,0Z"/>
          <path class="cls-1" d="M31.83,3.46l3.78,3.78-9.46,9.46,9.46,9.46-3.78,3.78-9.46-9.46c-2.09-2.09-2.09-5.48,0-7.57L31.83,3.46Z"/>
          <path class="cls-1" d="M43.17,3.46l9.46,9.46c2.09,2.09,2.09,5.48,0,7.57l-9.46,9.46-3.78-3.78,9.46-9.46-9.46-9.46,3.78-3.78Z"/>
        </g>
        <g>
          <path class="cls-3" d="M41.28,43.17l-3.78,3.78-3.78-3.78c2.09-2.09,5.48-2.09,7.57,0Z"/>
          <path class="cls-3" d="M31.83,45.07l3.78,3.78-9.46,9.46,9.46,9.46-3.78,3.78-9.46-9.46c-2.09-2.09-2.09-5.48,0-7.57l9.46-9.46Z"/>
          <path class="cls-3" d="M37.5,69.65l3.78,3.78c-2.09,2.09-5.48,2.09-7.57,0l3.78-3.78Z"/>
          <path class="cls-3" d="M43.17,45.07l9.46,9.46c2.09,2.09,2.09,5.48,0,7.57l-9.46,9.46-3.78-3.78,9.46-9.46-9.46-9.46,3.78-3.78Z"/>
        </g>
        <g>
          <path class="cls-2" d="M43.17,33.72l3.78,3.78-3.78,3.78c-2.09-2.09-2.09-5.48,0-7.57Z"/>
          <path class="cls-2" d="M73.43,33.72c2.09,2.09,2.09,5.48,0,7.57l-3.78-3.78,3.78-3.78Z"/>
          <path class="cls-2" d="M67.76,39.39l3.78,3.78-9.46,9.46c-2.09,2.09-5.48,2.09-7.57,0l-9.46-9.46,3.78-3.78,9.46,9.46,9.46-9.46Z"/>
          <path class="cls-2" d="M62.09,22.37l9.46,9.46-3.78,3.78-9.46-9.46-9.46,9.46-3.78-3.78,9.46-9.46c2.09-2.09,5.48-2.09,7.57,0Z"/>
        </g>
      </g>
      <g>
        <path class="cls-1" d="M125.27,35.31v1.17c0,4.3-.77,7.92-2.32,10.85-1.54,2.93-3.68,5.14-6.4,6.63-2.73,1.49-5.87,2.24-9.43,2.24-2.61,0-5.05-.47-7.34-1.43-2.28-.95-4.28-2.26-5.97-3.94-1.69-1.67-3.02-3.64-3.99-5.89-.96-2.25-1.45-4.68-1.45-7.29s.49-5.03,1.47-7.26c.98-2.24,2.35-4.19,4.09-5.87,1.74-1.67,3.78-2.98,6.12-3.91,2.34-.93,4.85-1.4,7.52-1.4,3.08,0,5.89.56,8.41,1.68,2.53,1.12,4.61,2.66,6.28,4.62l-5.44,5.44c-1.15-1.49-2.51-2.61-4.07-3.36-1.56-.74-3.32-1.12-5.28-1.12-2.1,0-3.98.47-5.64,1.39-1.66.94-2.96,2.24-3.89,3.91-.93,1.68-1.39,3.64-1.39,5.87s.46,4.2,1.37,5.89c.91,1.69,2.16,3.02,3.76,3.97,1.59.95,3.42,1.42,5.49,1.42s3.89-.39,5.36-1.19c1.47-.79,2.6-1.95,3.4-3.46.33-.62.59-1.31.78-2.04l-10.31-.17v-6.76h18.85Z"/>
        <path class="cls-1" d="M141.27,56.2c-2.54,0-4.84-.57-6.88-1.7-2.05-1.14-3.67-2.68-4.85-4.65-1.19-1.96-1.78-4.17-1.78-6.61s.59-4.62,1.78-6.55c1.18-1.93,2.8-3.46,4.83-4.6s4.34-1.7,6.91-1.7,4.88.56,6.91,1.68c2.03,1.12,3.64,2.65,4.83,4.6,1.18,1.95,1.78,4.14,1.78,6.58s-.59,4.64-1.78,6.61c-1.19,1.97-2.8,3.51-4.83,4.65-2.03,1.14-4.34,1.7-6.91,1.7ZM141.27,49.14c1.12,0,2.1-.24,2.95-.74.85-.49,1.5-1.18,1.96-2.08.46-.9.69-1.92.69-3.07s-.24-2.16-.71-3.02-1.13-1.54-1.96-2.03c-.83-.49-1.8-.74-2.92-.74s-2.05.25-2.9.74c-.85.49-1.51,1.18-1.98,2.06-.48.88-.71,1.9-.71,3.05s.24,2.13.71,3.02c.47.9,1.13,1.59,1.98,2.08.85.49,1.81.74,2.9.74Z"/>
        <path class="cls-1" d="M175.61,18.75v13.78c-.56-.43-1.17-.81-1.85-1.13-1.37-.65-2.9-.97-4.6-.97-2.34,0-4.41.56-6.22,1.68-1.81,1.12-3.24,2.64-4.27,4.57-1.04,1.93-1.55,4.13-1.55,6.6s.51,4.68,1.55,6.61c1.03,1.93,2.46,3.45,4.27,4.57,1.81,1.12,3.89,1.67,6.22,1.67,1.69,0,3.24-.35,4.63-1.04.73-.37,1.39-.8,1.98-1.3v1.84h7.62V18.75h-7.78ZM175.36,46.34c-.47.88-1.12,1.57-1.93,2.06-.81.49-1.78.74-2.89.74-1.05,0-2-.26-2.85-.76-.85-.51-1.51-1.2-1.98-2.08-.47-.88-.71-1.88-.71-3s.25-2.12.74-3c.49-.88,1.15-1.57,1.98-2.08.83-.51,1.78-.76,2.87-.76s2.04.25,2.87.76c.83.51,1.47,1.19,1.93,2.06.46.86.68,1.87.68,3.02s-.24,2.17-.71,3.05Z"/>
        <path class="cls-1" d="M197.87,56.25c-1.46,0-2.89-.19-4.29-.56-1.41-.37-2.71-.91-3.91-1.6-1.2-.69-2.23-1.5-3.07-2.41l4.42-4.47c.81.88,1.78,1.57,2.9,2.06,1.12.49,2.34.74,3.66.74.91,0,1.62-.13,2.11-.41.49-.27.74-.64.74-1.12,0-.61-.3-1.08-.89-1.4-.59-.32-1.35-.61-2.26-.86-.91-.25-1.88-.53-2.9-.84-1.02-.31-1.98-.73-2.9-1.27-.91-.54-1.66-1.29-2.23-2.26-.58-.97-.86-2.19-.86-3.68,0-1.59.41-2.97,1.22-4.14.81-1.17,1.96-2.09,3.45-2.77,1.49-.68,3.24-1.02,5.23-1.02,2.1,0,4.04.36,5.82,1.09,1.78.73,3.23,1.8,4.34,3.23l-4.42,4.47c-.78-.92-1.65-1.56-2.62-1.93s-1.91-.56-2.82-.56-1.54.13-1.98.38c-.44.25-.66.62-.66,1.09,0,.51.29.91.86,1.22.57.3,1.32.58,2.23.81.92.24,1.88.53,2.9.86,1.02.34,1.98.8,2.9,1.37.91.57,1.66,1.35,2.23,2.31.58.97.86,2.23.86,3.79,0,2.4-.91,4.32-2.72,5.74-1.81,1.42-4.26,2.13-7.34,2.13Z"/>
        <path class="cls-1" d="M229.27,30.95v2.04c-.66-.64-1.44-1.16-2.31-1.58-1.34-.65-2.84-.97-4.5-.97-2.27,0-4.29.56-6.07,1.68s-3.18,2.64-4.21,4.57c-1.04,1.93-1.55,4.13-1.55,6.6s.52,4.68,1.55,6.61c1.03,1.93,2.44,3.45,4.21,4.57,1.78,1.12,3.8,1.67,6.07,1.67,1.66,0,3.17-.32,4.52-.96.87-.41,1.64-.93,2.29-1.55v2h7.62v-24.69h-7.62ZM228.05,47.49c-1.02,1.1-2.35,1.65-4.01,1.65-1.05,0-1.99-.26-2.84-.76-.85-.51-1.51-1.2-1.98-2.08-.47-.88-.71-1.88-.71-3s.25-2.17.74-3.05c.49-.88,1.15-1.57,1.98-2.06.83-.49,1.78-.74,2.87-.74s2.04.25,2.87.74c.83.49,1.47,1.18,1.93,2.06.45.88.68,1.89.68,3.05,0,1.69-.51,3.09-1.53,4.19Z"/>
        <path class="cls-1" d="M266.46,39.84v15.8h-7.77v-14.08c0-1.29-.4-2.33-1.19-3.13-.79-.79-1.8-1.19-3.03-1.19-.85,0-1.59.18-2.23.54-.65.35-1.15.86-1.53,1.52-.37.66-.56,1.42-.56,2.26v14.08h-7.78v-24.69h7.78v1.94c.54-.49,1.14-.91,1.8-1.26,1.5-.79,3.2-1.19,5.1-1.19s3.45.43,4.85,1.29c1.4.87,2.52,2.01,3.33,3.43.81,1.43,1.22,2.98,1.22,4.68Z"/>
        <path class="cls-1" d="M288.41,18.75v13.78c-.56-.44-1.18-.81-1.85-1.13-1.37-.65-2.9-.97-4.6-.97-2.34,0-4.41.56-6.22,1.68-1.82,1.12-3.24,2.64-4.27,4.57-1.03,1.93-1.55,4.13-1.55,6.6s.52,4.68,1.55,6.61c1.04,1.93,2.46,3.45,4.27,4.57,1.81,1.12,3.88,1.67,6.22,1.67,1.69,0,3.24-.35,4.63-1.04.73-.37,1.39-.8,1.98-1.3v1.84h7.62V18.75h-7.78ZM288.16,46.34c-.48.88-1.12,1.57-1.93,2.06-.82.49-1.78.74-2.9.74-1.05,0-2-.26-2.85-.76-.85-.51-1.5-1.2-1.98-2.08-.47-.88-.72-1.88-.72-3s.25-2.12.74-3c.49-.88,1.15-1.57,1.98-2.08.83-.51,1.79-.76,2.87-.76s2.04.25,2.87.76c.83.51,1.47,1.19,1.93,2.06.46.86.69,1.87.69,3.02s-.24,2.17-.71,3.05Z"/>
      </g>
    </g>
  </g>
</svg>