<svg width="127" height="49" viewBox="0 0 127 49" fill="none" xmlns="http://www.w3.org/2000/svg">
<path d="M79.7082 21.1789L78.424 25.8226L75.2782 19.8334L72.1324 25.8226L70.1607 18.6254H68.0811L71.6881 31.2257L75.2782 24.0286L78.8662 31.1876C78.9127 31.0671 78.9572 30.9443 78.9995 30.8216L79.6193 28.6447C79.8986 27.3733 80.0467 26.0532 80.0467 24.6971C80.0467 23.4955 79.9282 22.3192 79.7082 21.1789Z" fill="black"/>
<path d="M80.8864 24.202L82.4752 18.6275H80.4147L80.1777 19.4865C80.5987 20.9927 80.8441 22.5709 80.8864 24.202Z" fill="black"/>
<path d="M5.3966 18.6254H7.20964V24.0286H13.9456V18.6254H15.7586V31.2257H13.9456V25.8226H7.20964V31.2257H5.3966V25.8226H4.04688V24.0286H5.3966V18.6254Z" fill="black"/>
<path d="M22.3612 31.2257V27.8133L16.958 18.6254H18.9488L23.2666 25.8226L27.5845 18.6254H29.5583L24.1552 27.8133V31.2257H22.3612Z" fill="black"/>
<path d="M30.7139 18.6254H35.2285C38.7107 18.6254 41.5202 21.4687 41.5202 24.934C41.5032 28.3993 38.8017 31.2257 35.2285 31.2257H30.7139V18.6254ZM32.5079 29.4296H35.2264C37.7143 29.4296 39.7219 27.4029 39.7219 24.934C39.7219 22.4461 37.7143 20.4194 35.2264 20.4194H32.5079V29.4296Z" fill="black"/>
<path d="M51.0234 31.2257L48.252 25.8226H45.5505V31.2257H43.7374V25.8226H42.3877V24.0286H43.7374V18.6254H50.4903C52.462 18.6254 54.0973 20.2608 54.0973 22.2325C54.0973 24.1513 52.5149 25.8226 50.4903 25.8226L53.1919 31.2257H51.0234ZM52.2864 22.2325C52.2864 21.1662 51.3979 20.4194 50.4924 20.4194H45.5526V24.0265H50.4924C51.5037 24.0286 52.2864 23.1929 52.2864 22.2325Z" fill="black"/>
<path d="M94.1716 18.6254V21.7713H92.3606V20.4215H85.6247V24.0286H89.2148V25.8226H85.6247V29.4296H92.3606V28.0799H94.1716V31.2257H83.8116V25.8226H82.4619V24.0286H83.8116V18.6254H94.1716Z" fill="black"/>
<path d="M107.813 31.2257H105.841L104.047 27.6187H99.0167L97.2036 31.2257H95.2129L97.0069 27.6187H96.1184V25.8247H97.9314L101.521 18.6275L107.813 31.2257ZM101.521 22.4102L99.8502 25.8226H103.191L101.521 22.4102Z" fill="black"/>
<path d="M116.062 31.2257L113.29 25.8226H110.589V31.2257H108.776V25.8226H107.426V24.0286H108.776V18.6254H115.528C117.5 18.6254 119.135 20.2608 119.135 22.2325C119.135 24.1513 117.553 25.8226 115.528 25.8226L118.23 31.2257H116.062ZM117.325 22.2325C117.325 21.1662 116.436 20.4194 115.53 20.4194H110.589V24.0265H115.528C116.542 24.0286 117.325 23.1929 117.325 22.2325Z" fill="black"/>
<path d="M61.6132 24.3438C61.2408 24.3438 60.9404 24.6442 60.9404 25.0165C60.9404 25.3889 61.2408 25.6893 61.6132 25.6893C61.9855 25.6893 62.2859 25.3889 62.2859 25.0165C62.2859 24.6463 61.9834 24.3438 61.6132 24.3438Z" fill="#0097D0"/>
<path d="M61.5039 18.4477C60.9094 18.4477 60.3319 18.5302 59.7839 18.6826C59.8241 18.8095 59.8474 18.9449 59.8474 19.0845C59.8474 19.8101 59.2572 20.4025 58.5294 20.4025C58.0936 20.4025 57.7086 20.1909 57.4695 19.8651C55.978 21.0562 55.0176 22.8862 55.0176 24.9362C55.0176 28.5072 57.9328 31.4055 61.5039 31.4055C65.075 31.4055 67.9733 28.5093 67.9733 24.9362C67.9712 21.363 65.075 18.4477 61.5039 18.4477ZM61.5039 29.6073C58.9271 29.5904 56.8475 27.4918 56.8475 24.934C56.8475 22.3573 58.9271 20.2417 61.5039 20.2417C64.0806 20.2417 66.1962 22.3382 66.1962 24.934C66.1941 27.5108 64.0806 29.6073 61.5039 29.6073Z" fill="#0097D0"/>
<path d="M65.952 32.7658C65.5797 32.7658 65.2793 33.0662 65.2793 33.4386C65.2793 33.8109 65.5797 34.1113 65.952 34.1113C66.3244 34.1113 66.6248 33.8109 66.6248 33.4386C66.6248 33.0662 66.3223 32.7658 65.952 32.7658Z" fill="#0097D0"/>
<path d="M74.4952 19.4695C72.3903 14.4303 67.4166 10.8888 61.6136 10.8888C59.2336 10.8888 56.9953 11.4833 55.0342 12.5347" stroke="#80CBEB" stroke-width="1.0001"/>
<path d="M13.5479 36.7304C13.7467 36.6944 13.99 36.6648 14.2777 36.6648C14.686 36.6648 14.9928 36.7706 15.1832 36.9547C15.3482 37.1154 15.4455 37.3397 15.4455 37.6253C15.4455 37.9194 15.363 38.1394 15.2086 38.3086C14.9907 38.5604 14.6226 38.6915 14.2037 38.6915C14.0492 38.6915 13.9096 38.6873 13.789 38.6513V40.1132H13.5479V36.7304ZM13.789 38.4356C13.9075 38.4715 14.0577 38.4842 14.2227 38.4842C14.8362 38.4842 15.2022 38.188 15.2022 37.6464C15.2022 37.1091 14.813 36.8658 14.2693 36.8658C14.0492 36.8658 13.88 36.887 13.789 36.906V38.4356Z" fill="black"/>
<path d="M18.6338 36.7368C18.8432 36.6902 19.1352 36.6627 19.3742 36.6627C19.8206 36.6627 20.0999 36.76 20.2945 36.9504C20.4426 37.0922 20.5336 37.3207 20.5336 37.5597C20.5336 38.0188 20.2607 38.315 19.8629 38.4504V38.4609C20.138 38.5498 20.3114 38.8079 20.3918 39.1887C20.5082 39.7218 20.5759 39.9757 20.6478 40.1111H20.3961C20.341 40.0117 20.2691 39.7112 20.1782 39.2797C20.0724 38.7867 19.8629 38.5625 19.4123 38.5435H18.8792V40.1111H18.638V36.7368H18.6338ZM18.875 38.3467H19.4187C19.9454 38.3467 20.2882 38.0505 20.2882 37.5999C20.2882 37.0753 19.9031 36.8616 19.3679 36.8616C19.1352 36.8616 18.9638 36.8849 18.875 36.9081V38.3467Z" fill="black"/>
<path d="M25.0393 40.1661C24.1973 40.1661 23.5479 39.5039 23.5479 38.4334C23.5479 37.3122 24.2269 36.6331 25.0816 36.6331C25.9448 36.6331 26.571 37.3058 26.571 38.3657C26.571 39.5716 25.8327 40.1661 25.0457 40.1661H25.0393ZM25.0499 39.9651C25.8623 39.9651 26.315 39.2289 26.315 38.3827C26.315 37.6612 25.9215 36.8383 25.0605 36.8383C24.1973 36.8383 23.7954 37.6295 23.7954 38.4292C23.7954 39.1993 24.2439 39.9672 25.0457 39.9672H25.0499V39.9651Z" fill="black"/>
<path d="M30.2311 36.8933H29.1162V36.6902H31.5872V36.8933H30.4723V40.1111H30.2311V36.8933Z" fill="black"/>
<path d="M36.0914 38.4102H34.7226V39.9059H36.2522V40.1111H34.4814V36.6902H36.1718V36.8954H34.7226V38.2071H36.0914V38.4102Z" fill="black"/>
<path d="M41.7019 39.9905C41.5284 40.0772 41.2005 40.164 40.7795 40.164C39.9524 40.164 39.1611 39.6351 39.1611 38.4208C39.1611 37.4053 39.8148 36.6373 40.8959 36.6373C41.3317 36.6373 41.5835 36.7346 41.6892 36.7875L41.611 36.9927C41.4375 36.906 41.1878 36.8447 40.9001 36.8447C39.9777 36.8447 39.415 37.4455 39.415 38.4271C39.415 39.3579 39.946 39.9566 40.8599 39.9566C41.154 39.9566 41.4375 39.8974 41.6321 39.798L41.7019 39.9905Z" fill="black"/>
<path d="M45.4655 36.8933H44.3506V36.6902H46.8216V36.8933H45.7067V40.1111H45.4655V36.8933Z" fill="black"/>
<path d="M49.957 36.6902H49.7158V40.1111H49.957V36.6902Z" fill="black"/>
<path d="M54.048 40.1111L52.9141 36.6902H53.1679L53.7709 38.5244C53.9338 39.0195 54.0755 39.4553 54.1728 39.8339H54.1855C54.2871 39.4489 54.4457 39.0025 54.6213 38.5244L55.2877 36.6902H55.5437L54.2786 40.1111H54.048Z" fill="black"/>
<path d="M60.058 38.4102H58.6914V39.9059H60.2209V40.1111H58.4502V36.6902H60.1405V36.8954H58.6914V38.2071H60.058V38.4102Z" fill="black"/>
<path d="M69.3201 39.9905C69.1466 40.0772 68.8187 40.164 68.3977 40.164C67.5705 40.164 66.7793 39.6351 66.7793 38.4208C66.7793 37.4053 67.433 36.6373 68.5141 36.6373C68.9499 36.6373 69.2016 36.7346 69.3074 36.7875L69.2291 36.9927C69.0556 36.906 68.806 36.8447 68.5183 36.8447C67.5959 36.8447 67.0332 37.4455 67.0332 38.4271C67.0332 39.3579 67.5642 39.9566 68.4781 39.9566C68.7722 39.9566 69.0556 39.8974 69.2503 39.798L69.3201 39.9905Z" fill="black"/>
<path d="M72.4346 36.6902H72.6757V39.908H74.2011V40.1111H72.4346V36.6902Z" fill="black"/>
<path d="M78.3196 40.1661C77.4776 40.1661 76.8281 39.5039 76.8281 38.4334C76.8281 37.3122 77.5072 36.6331 78.3619 36.6331C79.2251 36.6331 79.8513 37.3058 79.8513 38.3657C79.8513 39.5716 79.1129 40.1661 78.3259 40.1661H78.3196ZM78.3281 39.9651C79.1404 39.9651 79.5932 39.2289 79.5932 38.3827C79.5932 37.6612 79.1997 36.8383 78.3386 36.8383C77.4755 36.8383 77.0735 37.6295 77.0735 38.4292C77.0735 39.1993 77.522 39.9672 78.3238 39.9672H78.3281V39.9651Z" fill="black"/>
<path d="M83.5114 36.8933H82.3965V36.6902H84.8675V36.8933H83.7526V40.1111H83.5114V36.8933Z" fill="black"/>
<path d="M88.0029 36.6902V38.1944H89.89V36.6902H90.1312V40.1111H89.89V38.3996H88.0029V40.1111H87.7617V36.6902H88.0029Z" fill="black"/>
<path d="M93.7382 36.6902H93.4971V40.1111H93.7382V36.6902Z" fill="black"/>
<path d="M97.1064 40.1111V36.6902H97.337L98.6698 38.7106C98.947 39.1379 99.1458 39.4552 99.3109 39.7874L99.3214 39.7789C99.2855 39.3198 99.2812 38.9285 99.2812 38.3911V36.6881H99.5161V40.1089H99.2897L97.9844 38.1182C97.7284 37.7268 97.4957 37.3651 97.3222 37.0118L97.3074 37.0202C97.3349 37.4412 97.3392 37.8093 97.3392 38.3784V40.1089H97.1064V40.1111Z" fill="black"/>
<path d="M105.338 39.9588C105.165 40.0286 104.809 40.1449 104.342 40.1449C103.889 40.1449 103.474 40.0286 103.132 39.6964C102.848 39.4214 102.662 38.9623 102.662 38.4123C102.662 37.4645 103.284 36.6564 104.448 36.6564C104.814 36.6564 105.112 36.7452 105.245 36.8087L105.167 37.0097C104.989 36.925 104.763 36.8616 104.437 36.8616C103.494 36.8616 102.916 37.473 102.916 38.3996C102.916 39.3643 103.481 39.9397 104.384 39.9397C104.744 39.9397 104.972 39.8868 105.099 39.8213V38.6175H104.306V38.4186H105.34V39.9588H105.338Z" fill="black"/>
<path d="M55.2606 11.9085C54.8883 11.9085 54.5879 12.2089 54.5879 12.5813C54.5879 12.9536 54.8883 13.254 55.2606 13.254C55.633 13.254 55.9334 12.9536 55.9334 12.5813C55.9334 12.211 55.633 11.9085 55.2606 11.9085Z" fill="#0097D0"/>
<path d="M120.881 19.8017C120.881 19.0105 121.528 18.3631 122.328 18.3631C123.123 18.3631 123.766 19.0105 123.766 19.8017C123.766 20.6014 123.123 21.2487 122.328 21.2487C121.528 21.2487 120.881 20.6014 120.881 19.8017ZM123.538 19.8017C123.538 19.1014 123.028 18.5535 122.328 18.5535C121.623 18.5535 121.109 19.1014 121.109 19.8017C121.109 20.5104 121.623 21.0583 122.328 21.0583C123.026 21.0583 123.538 20.5104 123.538 19.8017ZM123.045 20.6098L122.558 19.8673C122.844 19.8588 123.064 19.7424 123.064 19.4251C123.064 19.1586 122.92 18.9978 122.493 18.9978H121.788V20.6077H121.987V19.8673H122.349L122.81 20.6098H123.045ZM122.288 19.7107C122.516 19.7107 122.85 19.7488 122.85 19.4209C122.85 19.1691 122.645 19.1395 122.446 19.1395H121.985V19.7107H122.288Z" fill="black"/>
<path d="M70.1939 41.1921C69.8808 41.1921 69.627 41.446 69.627 41.7591C69.627 42.0722 69.8808 42.3261 70.1939 42.3261C70.507 42.3261 70.7609 42.0722 70.7609 41.7591C70.7609 41.446 70.507 41.1921 70.1939 41.1921Z" fill="#0097D0"/>
<path d="M58.5293 17.9781C57.9179 17.9781 57.4229 18.4731 57.4229 19.0845C57.4229 19.6959 57.9179 20.1909 58.5293 20.1909C59.1407 20.1909 59.6357 19.6959 59.6357 19.0845C59.6357 18.4731 59.1407 17.9781 58.5293 17.9781Z" fill="#0097D0"/>
<path d="M61.6133 44.0862C64.5222 44.0862 67.2788 43.4304 69.7497 42.2605C69.644 42.1653 69.5657 42.0384 69.5361 41.8924C67.1307 43.0263 64.446 43.661 61.6133 43.661V44.0862Z" fill="#80CBEB"/>
<path d="M61.6135 5.94897C54.6829 5.94897 48.2876 9.71891 44.9238 15.7863L45.2941 15.9916C48.5838 10.0574 54.8352 6.37209 61.6135 6.37209C71.8951 6.37209 80.258 14.737 80.258 25.0165C80.258 32.0064 76.3907 38.1076 70.685 41.3C70.7823 41.4037 70.8437 41.537 70.8606 41.6872C76.7123 38.4271 80.6811 32.1777 80.6811 25.0165C80.6811 14.5043 72.1257 5.94897 61.6135 5.94897Z" fill="#80CBEB"/>
</svg>
