<svg width="167" height="48" viewBox="0 0 167 48" fill="none" xmlns="http://www.w3.org/2000/svg">
<g clip-path="url(#clip0_2033_523)">
<path d="M157.867 5.41934C153.067 5.41934 149.196 9.29031 149.196 14.0903C149.196 18.8903 153.067 22.7613 157.867 22.7613C162.667 22.7613 166.538 18.8903 166.538 14.0903C166.538 9.13547 162.667 5.41934 157.867 5.41934Z" fill="url(#paint0_linear_2033_523)"/>
<path d="M158.331 25.2387C158.022 26.3226 157.867 27.2516 157.557 27.871L157.402 28.1806C157.247 28.9548 156.628 29.4193 155.854 29.4193H155.389C155.08 29.4193 154.77 29.2645 154.46 28.9548C154.305 28.6451 154.151 28.3355 154.151 28.0258L154.615 24.929C154.615 24.7742 154.77 24.4645 154.925 24.3097C150.434 23.2258 147.183 19.2 147.183 14.4C147.183 13.6258 147.338 13.0064 147.338 12.2322H134.641C133.867 12.2322 133.247 11.7677 133.093 10.9935L132.473 8.36128C132.163 7.43224 131.389 6.65805 130.305 6.65805H126.589C125.815 6.65805 125.351 7.2774 125.351 7.89676C125.351 8.67095 125.97 9.13547 126.589 9.13547H128.602C129.376 9.13547 129.996 9.59999 130.151 10.3742L135.105 30.5032C135.415 31.4322 136.189 32.2064 137.273 32.2064H157.557C158.641 32.2064 159.415 31.5871 159.725 30.5032L161.428 23.6903C160.344 24.1548 159.26 24.3097 158.176 24.4645C158.486 24.929 158.486 25.0839 158.331 25.2387ZM135.57 19.6645C135.415 18.8903 135.105 18.1161 134.951 17.4968L134.796 16.8774C134.641 16.5677 134.796 16.258 134.951 15.9484C135.105 15.6387 135.57 15.4839 135.88 15.4839H137.273C138.047 15.4839 138.667 15.9484 138.667 16.7226L139.131 19.5097C139.131 19.8193 139.131 20.129 138.822 20.4387C138.667 20.7484 138.202 20.9032 137.893 20.9032H137.118C136.344 20.7484 135.725 20.2839 135.57 19.6645ZM140.37 28.9548C140.215 29.2645 139.751 29.4193 139.441 29.4193H139.286C138.512 29.4193 137.893 28.9548 137.738 28.1806L137.583 27.871C137.428 27.0968 137.118 26.1677 136.809 25.0839C136.654 24.7742 136.809 24.4645 136.963 24.1548C137.118 23.8451 137.583 23.6903 137.893 23.6903H138.667C139.441 23.6903 140.06 24.1548 140.215 24.929L140.68 28.0258C140.68 28.3355 140.68 28.8 140.37 28.9548ZM146.099 28.3355C146.099 28.9548 145.634 29.4193 145.015 29.4193C144.396 29.4193 143.776 28.9548 143.776 28.3355L143.312 25.0839C143.312 24.7742 143.312 24.4645 143.622 24.1548C143.776 23.8451 144.241 23.6903 144.551 23.6903H145.015C145.789 23.6903 146.409 24.3097 146.409 25.0839V28.3355H146.099ZM146.099 19.5097C146.099 20.2839 145.48 20.9032 144.705 20.9032H143.622C142.847 20.9032 142.228 20.4387 142.073 19.6645L141.763 16.7226C141.763 16.4129 141.763 16.1032 142.073 15.7935C142.383 15.4839 142.693 15.329 143.002 15.329H144.86C145.634 15.329 146.099 15.9484 146.099 16.7226V19.5097ZM151.983 25.0839L151.518 28.3355C151.363 28.9548 150.899 29.4193 150.28 29.4193C149.66 29.4193 149.196 28.9548 149.196 28.3355V25.0839C149.196 24.3097 149.815 23.6903 150.589 23.6903H151.054C151.363 23.6903 151.673 23.8451 151.983 24.1548C151.983 24.4645 151.983 24.7742 151.983 25.0839Z" fill="url(#paint1_linear_2033_523)"/>
<path d="M157.867 6.65805L160.035 10.9935L164.99 11.7677L161.428 15.1742L162.203 19.9742L157.867 17.8064L153.532 19.9742L154.306 15.1742L150.899 11.7677L155.699 10.9935L157.867 6.65805Z" fill="white"/>
<path d="M138.666 42.1161C140.719 42.1161 142.382 40.383 142.382 38.2451C142.382 36.1073 140.719 34.3742 138.666 34.3742C136.614 34.3742 134.95 36.1073 134.95 38.2451C134.95 40.383 136.614 42.1161 138.666 42.1161Z" fill="url(#paint2_linear_2033_523)"/>
<path d="M156.628 42.1161C158.681 42.1161 160.344 40.383 160.344 38.2451C160.344 36.1073 158.681 34.3742 156.628 34.3742C154.576 34.3742 152.912 36.1073 152.912 38.2451C152.912 40.383 154.576 42.1161 156.628 42.1161Z" fill="url(#paint3_linear_2033_523)"/>
<path d="M42.9763 34.529C41.2731 35.7677 38.6409 36.2323 35.0796 36.2323H29.9699C29.1957 36.2323 28.5763 36.2323 27.6473 36.2323C26.8731 36.2323 26.0989 36.0774 25.3247 35.9226C24.5505 35.7677 23.7763 35.4581 23.157 35.3032C22.3828 34.9936 21.7634 34.529 21.2989 34.0645C20.8344 33.6 20.3699 32.8258 20.0602 32.0516C19.7505 31.2774 19.5957 30.3484 19.5957 29.1097V11.4581H24.2409V28.9548C24.2409 30.8129 25.9441 31.7419 29.5054 31.7419H35.8538C39.2602 31.7419 40.9634 30.8129 40.9634 28.9548V11.4581H45.6086V29.2645C45.4538 31.5871 44.6796 33.4452 42.9763 34.529Z" fill="#0F0E0E"/>
<path d="M80.6023 36.5419V20.2839L70.5378 35.1484C70.2281 35.6129 69.7636 36.0774 69.2991 36.3871C68.8346 36.6968 68.37 36.8516 67.7507 36.8516C66.6668 36.8516 65.7378 36.3871 64.9636 35.3032L54.8991 20.129V36.5419H50.2539V14.0903C50.2539 13.1613 50.5636 12.5419 51.0281 12.0774C51.4926 11.6129 52.112 11.3032 52.8862 11.3032C53.97 11.3032 54.8991 11.7677 55.5184 12.5419L68.0604 30.5032L80.4475 12.6968C81.0668 11.7677 81.841 11.3032 82.9249 11.3032C83.6991 11.3032 84.3184 11.6129 84.7829 12.0774C85.2475 12.5419 85.5571 13.3161 85.5571 14.2452V36.3871H80.6023V36.5419Z" fill="#0F0E0E"/>
<path d="M89.8926 36.3871V11.4581H94.5377V36.3871H89.8926Z" fill="#0F0E0E"/>
<path d="M126.125 36.5419L122.254 29.729H107.7L103.983 36.5419H98.4092L112.345 13.1613C112.964 12.0774 113.893 11.4581 114.977 11.4581C116.061 11.4581 116.99 12.0774 117.609 13.1613L131.235 36.5419H126.125ZM114.977 17.6516L110.487 25.0839H119.467L114.977 17.6516Z" fill="#0F0E0E"/>
<path d="M14.9507 25.2387C14.9507 32.8258 12.1636 36.0774 7.20874 37.1613C2.40874 38.0903 0.860352 38.0903 0.860352 38.0903V32.9806C2.71842 32.8258 5.66035 32.5161 7.51842 31.8968C9.22164 31.2774 10.4604 29.5742 10.4604 25.2387L10.6152 16.1032V11.4581H15.2604L14.9507 25.2387Z" fill="#0F0E0E"/>
</g>
<defs>
<linearGradient id="paint0_linear_2033_523" x1="149.265" y1="13.9816" x2="166.538" y2="13.9816" gradientUnits="userSpaceOnUse">
<stop stop-color="#EB712A"/>
<stop offset="0.2311" stop-color="#EF8528"/>
<stop offset="0.4715" stop-color="#F29426"/>
<stop offset="0.6242" stop-color="#F39A24"/>
</linearGradient>
<linearGradient id="paint1_linear_2033_523" x1="125.48" y1="19.6453" x2="161.682" y2="19.6453" gradientUnits="userSpaceOnUse">
<stop stop-color="#343434"/>
<stop offset="0.5455" stop-color="#696968"/>
<stop offset="1" stop-color="#696968"/>
</linearGradient>
<linearGradient id="paint2_linear_2033_523" x1="134.959" y1="38.2529" x2="142.411" y2="38.2529" gradientUnits="userSpaceOnUse">
<stop stop-color="#343434"/>
<stop offset="0.5455" stop-color="#696968"/>
<stop offset="1" stop-color="#696968"/>
</linearGradient>
<linearGradient id="paint3_linear_2033_523" x1="152.862" y1="38.2529" x2="160.31" y2="38.2529" gradientUnits="userSpaceOnUse">
<stop stop-color="#343434"/>
<stop offset="0.5455" stop-color="#696968"/>
<stop offset="1" stop-color="#696968"/>
</linearGradient>
<clipPath id="clip0_2033_523">
<rect width="165.677" height="48" fill="white" transform="translate(0.860352)"/>
</clipPath>
</defs>
</svg>
