<svg width="66" height="44" viewBox="0 0 66 44" fill="none" xmlns="http://www.w3.org/2000/svg">
<path d="M65.9003 26.0844C65.9003 27.6624 65.9003 29.3333 65.9003 30.9114C65.9003 31.0042 65.9003 31.0042 65.9003 31.097C65.9003 31.4684 65.9003 31.7468 65.8075 32.1181C65.7146 33.0464 65.529 33.9747 65.3433 34.8101C64.972 36.2025 64.5079 37.5021 63.8581 38.7089C63.3011 39.73 62.5585 40.6582 61.7231 41.4008C61.2589 41.865 60.702 42.2363 60.145 42.6076C59.0311 43.2574 57.8243 43.7215 56.5248 43.9072C56.3391 43.9072 56.2463 43.9072 56.0606 44C55.1324 44 54.1113 44 53.183 44C53.0902 44 53.0902 44 52.9973 44C52.626 43.9072 52.1619 43.9072 51.7906 43.8144C50.8623 43.6287 50.0269 43.3502 49.2843 42.8861C48.2632 42.3291 47.4277 41.6793 46.5923 40.9367C45.9425 40.2869 45.2927 39.6371 44.6429 38.8945C43.7146 37.7806 42.8792 36.5738 42.0438 35.4599C40.837 33.6034 39.6302 31.7468 38.5163 29.7975C37.2167 27.5696 35.9172 25.3418 34.6176 23.2068C34.2463 22.557 33.7821 21.9072 33.4108 21.2574C33.4108 21.2574 33.4108 21.1646 33.318 21.1646C33.2252 21.0717 33.2252 21.0717 33.1324 21.1646C33.1324 21.1646 33.1324 21.2574 33.0395 21.2574C32.9467 21.443 32.761 21.7215 32.6682 21.9072C32.1113 22.8354 31.5543 23.8565 30.9973 24.7848C30.0691 26.3629 29.2336 27.9409 28.3054 29.4262C27.4699 30.9114 26.6345 32.3038 25.7062 33.6962C24.8708 35.0886 23.9425 36.3882 22.9214 37.6878C22.0859 38.7089 21.2505 39.73 20.3222 40.5654C19.6724 41.2152 18.9298 41.7722 18.1872 42.2363C16.8876 43.0717 15.4952 43.6287 14.01 43.8144C13.9172 43.8144 13.7315 43.8143 13.6387 43.9072C12.6176 43.9072 11.6893 43.9072 10.6682 43.9072C10.5754 43.9072 10.5754 43.9072 10.4826 43.9072C9.9256 43.8143 9.27582 43.7215 8.71885 43.5359C6.491 42.8861 4.72729 41.6793 3.33488 39.9156C2.59227 38.9873 1.94248 37.8734 1.47834 36.7595C0.921381 35.3671 0.550075 33.8819 0.364421 32.3966C0.271594 31.8397 0.178767 31.2827 0.178767 30.6329C0.178767 30.076 0.0859375 29.519 0.0859375 29.0549C0.0859375 28.5907 0.0859375 28.0338 0.0859375 27.5696C0.0859375 27.1983 0.0859375 26.827 0.0859375 26.5485C0.0859375 25.9916 0.178767 25.4346 0.178767 24.8776C0.271594 24.135 0.36442 23.3924 0.457247 22.6498C0.735728 21.0717 1.01421 19.4937 1.47834 18.0084C2.0353 16.0591 2.6851 14.1097 3.61337 12.346C4.35598 10.7679 5.19142 9.2827 6.11969 7.8903C7.04796 6.59072 7.97623 5.47679 9.09016 4.36287C9.9256 3.62025 10.761 2.87764 11.6893 2.32068C12.8032 1.57806 14.01 1.02109 15.3096 0.649786C16.3307 0.371305 17.4446 0.0928256 18.5585 0.0928256C18.6513 0.0928256 18.7442 0.0928256 18.837 0.0928256C19.0226 0.0928256 19.1155 0.0928256 19.3011 0.0928256C19.394 0.0928256 19.4868 0.0928256 19.5796 0.0928256C20.1366 0.0928256 20.6935 0.18565 21.1577 0.278477C22.9214 0.556958 24.5923 1.11392 26.0775 2.04219C27.4699 2.87763 28.6767 3.8059 29.8834 4.91983C30.626 5.56962 31.2758 6.31224 31.9256 6.96203C32.5754 7.70464 33.1324 8.35443 33.6893 9.09704C33.875 9.2827 33.875 9.2827 33.9678 9.09704C34.2463 8.72574 34.6176 8.2616 34.8961 7.8903C35.5459 7.05485 36.1957 6.31223 36.9383 5.47679C37.5881 4.827 38.2378 4.17721 38.8876 3.52742C39.6302 2.87763 40.4657 2.22784 41.394 1.67088C42.3222 1.11392 43.3433 0.649783 44.3644 0.371302C45.107 0.185648 45.7568 0 46.4994 0C47.0564 0 47.6134 0 48.2632 0C48.7273 0 49.1914 0.0928242 49.7484 0.185651C51.2336 0.464132 52.626 1.11392 54.0184 1.85654C55.2252 2.59916 56.3391 3.52742 57.3602 4.45569C57.6387 4.73417 58.01 5.10548 58.2885 5.47679C58.9383 6.2194 59.4952 6.96202 60.0522 7.79746C61.1661 9.46835 62.0944 11.1392 62.837 12.9958C63.3011 14.0169 63.6724 15.038 63.9509 16.1519C64.3222 17.2658 64.6007 18.4726 64.8792 19.5865C65.0648 20.5148 65.2505 21.3502 65.3433 22.2785C65.4362 22.9283 65.529 23.4852 65.529 24.135C65.6218 24.5992 65.6218 25.0633 65.6218 25.5274C65.9003 25.8987 65.9003 25.9916 65.9003 26.0844ZM59.6809 28.4979C59.6809 28.3122 59.6809 28.2194 59.6809 28.1266C59.6809 27.4768 59.6809 26.827 59.5881 26.1772C59.5881 25.6203 59.4952 25.0633 59.4024 24.5063C59.3096 23.6709 59.2167 22.7426 59.0311 21.9072C58.6598 19.7722 58.1028 17.6371 57.2674 15.6878C56.7104 14.2954 56.0606 12.903 55.2252 11.6034C54.5754 10.4895 53.74 9.56118 52.8117 8.63291C52.1619 7.98312 51.5121 7.42616 50.6767 7.05485C49.4699 6.31224 48.0775 5.94092 46.6851 5.94092C46.3138 5.94092 45.9425 6.03376 45.5712 6.03376C44.8286 6.21941 44.0859 6.49789 43.4362 6.86919C42.6935 7.33333 42.0437 7.79747 41.4868 8.35443C40.6513 9.18987 39.8159 10.1181 39.0733 11.0464C38.4235 11.8819 37.8665 12.7173 37.3096 13.6456C37.1239 13.924 37.1239 13.8312 37.3096 14.1097C38.5163 15.9662 39.7231 17.8228 40.837 19.6793C41.9509 21.5359 42.972 23.2996 44.0859 25.1561C44.6429 26.0844 45.1999 27.0127 45.8497 27.9409C46.7779 29.3333 47.6134 30.7257 48.6345 32.1181C49.2843 33.0464 50.0269 33.9747 50.7695 34.903C51.1408 35.3671 51.6049 35.7384 52.1619 36.1097C52.7189 36.481 53.2758 36.6667 53.8328 36.7595C54.3897 36.8523 54.8539 36.8523 55.4108 36.7595C56.5248 36.6667 57.453 36.1097 58.1028 35.2743C58.4741 34.7173 58.7526 34.1603 59.0311 33.5106C59.4024 32.3966 59.5881 31.2827 59.5881 30.1688C59.5881 29.9831 59.5881 29.8903 59.5881 29.7046C59.6809 29.4262 59.6809 28.962 59.6809 28.4979ZM7.23362 28.8692C7.23362 29.1477 7.23362 29.4262 7.23362 29.7046C7.23362 30.3544 7.32645 31.0042 7.41927 31.654C7.5121 32.3966 7.69775 33.1392 8.06906 33.8819C8.34754 34.5317 8.71885 35.1814 9.27581 35.7384C9.64712 36.1097 10.1113 36.3882 10.5754 36.5738C11.1324 36.7595 11.5965 36.8523 12.1535 36.9451C12.4319 36.9451 12.7104 36.9451 12.9889 36.9451C13.6387 36.8523 14.1956 36.6667 14.7526 36.3882C15.4024 36.0169 15.8665 35.6456 16.4235 35.1814C16.9805 34.7173 17.4446 34.1603 17.8159 33.6034C18.7442 32.4895 19.4868 31.3755 20.3222 30.2616C21.3433 28.7764 22.3644 27.1983 23.2927 25.7131C23.9425 24.692 24.6851 23.5781 25.3349 22.557C26.0775 21.3502 26.9129 20.1435 27.6556 18.9367C28.2125 18.0084 28.8623 17.0802 29.4193 16.2447C29.6049 15.9662 29.6049 15.9662 29.4193 15.7806C28.5838 14.5738 27.6556 13.3671 26.7273 12.346C25.9847 11.5105 25.2421 10.7679 24.4994 10.0253C23.9425 9.56118 23.3855 9.09704 22.7357 8.72573C22.0859 8.35443 21.3433 8.07595 20.5079 7.8903C19.9509 7.79747 19.394 7.70464 18.837 7.70464C18.3729 7.70464 17.9087 7.79747 17.4446 7.8903C16.6091 8.16878 15.8665 8.54008 15.1239 9.00422C14.4741 9.46835 13.9172 9.93249 13.453 10.4894C12.9889 10.9536 12.6176 11.5105 12.1535 12.0675C11.318 13.1814 10.6682 14.3882 10.1113 15.6878C9.36864 17.3586 8.81168 19.0295 8.34754 20.7004C8.06906 21.9072 7.79058 23.2067 7.60493 24.4135C7.5121 24.9705 7.41927 25.6203 7.41927 26.1772C7.41927 26.6414 7.32645 27.1055 7.32645 27.6624C7.23362 27.9409 7.23362 28.4051 7.23362 28.8692Z" fill="url(#paint0_linear_2033_599)"/>
<defs>
<linearGradient id="paint0_linear_2033_599" x1="20.6998" y1="35.84" x2="52.0017" y2="8.29428" gradientUnits="userSpaceOnUse">
<stop stop-color="#0082FB"/>
<stop offset="0.1846" stop-color="#007CF5"/>
<stop offset="0.4402" stop-color="#006AE5"/>
<stop offset="0.5056" stop-color="#0064E0"/>
<stop offset="0.703" stop-color="#006EE9"/>
<stop offset="0.9525" stop-color="#0082FB"/>
</linearGradient>
</defs>
</svg>
