<svg width="122" height="48" viewBox="0 0 122 48" fill="none" xmlns="http://www.w3.org/2000/svg">
<g clip-path="url(#clip0_2033_506)">
<path d="M38.4624 32.4264L39.9305 28.9949C41.538 30.1853 43.6347 30.8154 45.7318 30.8154C47.2696 30.8154 48.248 30.2204 48.248 29.3102C48.2129 26.789 38.9867 28.7498 38.9165 22.4112C38.8814 19.1897 41.7475 16.7036 45.802 16.7036C48.2129 16.7036 50.6249 17.2991 52.3371 18.665L50.9652 22.1696C49.3898 21.1566 47.444 20.4504 45.592 20.4504C44.3339 20.4504 43.4948 21.0453 43.4948 21.8162C43.5299 24.3023 52.8268 22.9365 52.9316 28.9949C52.9316 32.2865 50.1352 34.5977 46.1509 34.5977C43.2156 34.5977 40.5245 33.8975 38.4619 32.4264H38.4624ZM96.9205 27.7523C96.5499 28.4108 96.0108 28.9588 95.3586 29.3402C94.7063 29.7216 93.9644 29.9226 93.2088 29.9227C90.854 29.9227 88.9453 28.01 88.9453 25.6507C88.9453 23.2914 90.854 21.3786 93.2088 21.3786C93.9644 21.3787 94.7063 21.5797 95.3586 21.9611C96.0108 22.3425 96.5499 22.8905 96.9205 23.549L101.002 21.2834C99.4732 18.5512 96.5571 16.7036 93.2088 16.7036C88.2772 16.7036 84.2793 20.709 84.2793 25.6507C84.2793 30.5918 88.2772 34.5977 93.2088 34.5977C96.5571 34.5977 99.4732 32.7502 101.002 30.0179L96.9205 27.7523ZM55.5801 34.2473H60.6827V9.25577H55.5806L55.5801 34.2473ZM103.579 9.25577V34.2473H108.681V26.7599L114.728 34.2473H121.25L113.561 25.3524L120.691 17.0525H114.448L108.681 23.953V9.25577H103.579ZM76.4029 17.0535V19.085C75.5643 17.684 73.5022 16.7036 71.3354 16.7036C66.8619 16.7036 63.3322 20.6609 63.3322 25.6331C63.3322 30.6054 66.8619 34.5977 71.3354 34.5977C73.5022 34.5977 75.5643 33.6173 76.4029 32.2163V34.2473H81.5055V17.0535H76.4029ZM76.4029 27.7869C75.6691 29.0124 74.1313 29.9222 72.4191 29.9222C70.0638 29.9222 68.1551 28.01 68.1551 25.6507C68.1551 23.2914 70.0638 21.3786 72.4191 21.3786C74.1313 21.3786 75.6691 22.324 76.4029 23.5841V27.7869Z" fill="black"/>
<path d="M11.5152 8.70361C9.86158 8.70361 8.52128 10.0469 8.52128 11.7035C8.52089 12.0971 8.59801 12.4868 8.74825 12.8506C8.8985 13.2143 9.11891 13.5449 9.39692 13.8235C9.67493 14.1021 10.0051 14.3231 10.3685 14.4741C10.732 14.6251 11.1216 14.703 11.5152 14.7034H14.5095V11.7035C14.5102 10.9086 14.1951 10.1461 13.6336 9.58348C13.072 9.0209 12.31 8.70441 11.5152 8.70361ZM11.5152 16.7033H3.53099C1.87741 16.7033 0.537109 18.0466 0.537109 19.7037C0.537109 21.3603 1.87741 22.7036 3.53099 22.7036H11.5157C13.1687 22.7036 14.5095 21.3603 14.5095 19.7037C14.5095 18.0466 13.1687 16.7033 11.5152 16.7033Z" fill="#36C5F0"/>
<path d="M30.4783 19.7037C30.4783 18.0466 29.1375 16.7033 27.4839 16.7033C25.8303 16.7033 24.49 18.0466 24.49 19.7037V22.7036H27.4839C28.2788 22.7028 29.0408 22.3863 29.6023 21.8237C30.1639 21.2612 30.479 20.4986 30.4783 19.7037ZM22.4941 19.7037V11.7035C22.4948 10.9086 22.1797 10.1461 21.6182 9.58348C21.0566 9.0209 20.2946 8.70441 19.4997 8.70361C17.8462 8.70361 16.5059 10.0469 16.5059 11.7035V19.7032C16.5059 21.3608 17.8462 22.7041 19.4997 22.7041C20.2946 22.7033 21.0566 22.3868 21.6182 21.8242C22.1797 21.2617 22.4948 20.4991 22.4941 19.7042" fill="#2EB67D"/>
<path d="M19.4997 38.7036C20.2946 38.7028 21.0566 38.3863 21.6182 37.8237C22.1797 37.2612 22.4948 36.4986 22.4941 35.7037C22.4948 34.9088 22.1797 34.1463 21.6182 33.5837C21.0566 33.0211 20.2946 32.7046 19.4997 32.7038H16.5059V35.7037C16.5059 37.3603 17.8462 38.7036 19.4997 38.7036ZM19.4997 30.7039H27.4844C29.1375 30.7039 30.4783 29.3606 30.4783 27.7035C30.479 26.9086 30.1639 26.1461 29.6023 25.5835C29.0408 25.0209 28.2788 24.7044 27.4839 24.7036H19.4997C17.8462 24.7036 16.5059 26.0469 16.5059 27.7035C16.5055 28.0971 16.5826 28.4868 16.7328 28.8506C16.8831 29.2143 17.1035 29.5449 17.3815 29.8235C17.6595 30.1021 17.9897 30.3231 18.3531 30.4741C18.7166 30.6251 19.1062 30.703 19.4997 30.7034" fill="#ECB22E"/>
<path d="M0.537111 27.7035C0.536716 28.0971 0.613841 28.4868 0.764084 28.8506C0.914326 29.2143 1.13474 29.5449 1.41275 29.8235C1.69076 30.1021 2.02091 30.3231 2.38436 30.4741C2.74781 30.6251 3.13743 30.703 3.53099 30.7034C4.32586 30.7026 5.08786 30.3861 5.6494 29.8235C6.21094 29.261 6.52603 28.4984 6.52537 27.7035V24.7036H3.53099C1.87741 24.7036 0.537111 26.0469 0.537111 27.7035ZM8.52128 27.7035V35.7032C8.52128 37.3603 9.86159 38.7036 11.5152 38.7036C12.31 38.7028 13.072 38.3863 13.6336 37.8237C14.1951 37.2612 14.5102 36.4986 14.5095 35.7037V27.7035C14.5099 27.3099 14.4328 26.9201 14.2825 26.5563C14.1322 26.1925 13.9118 25.8619 13.6337 25.5833C13.3557 25.3048 13.0254 25.0837 12.6619 24.9327C12.2984 24.7818 11.9088 24.7039 11.5152 24.7036C9.86159 24.7036 8.52128 26.0469 8.52128 27.7035Z" fill="#E01E5A"/>
</g>
<defs>
<clipPath id="clip0_2033_506">
<rect width="121" height="48" fill="white" transform="translate(0.537109)"/>
</clipPath>
</defs>
</svg>
