<svg width="141" height="48" viewBox="0 0 141 48" fill="none" xmlns="http://www.w3.org/2000/svg">
<g clip-path="url(#clip0_2033_505)">
<path d="M21.933 3.0791C10.3351 3.0791 0.932617 12.4813 0.932617 24.0792C0.932617 35.6777 10.3351 45.0791 21.933 45.0791C33.5322 45.0791 42.9336 35.6777 42.9336 24.0792C42.9336 12.482 33.5322 3.0801 21.9328 3.0801L21.933 3.0791ZM31.5636 33.3673C31.1875 33.9842 30.38 34.1798 29.7631 33.8011C24.8324 30.7894 18.6253 30.1073 11.3153 31.7774C10.6109 31.9379 9.90874 31.4966 9.74825 30.7919C9.587 30.0872 10.0266 29.3851 10.7328 29.2246C18.7324 27.3969 25.5943 28.1839 31.1298 31.5668C31.7467 31.9454 31.9423 32.7504 31.5636 33.3673ZM34.1341 27.6492C33.6601 28.4196 32.652 28.6628 31.8821 28.1889C26.2372 24.7192 17.6325 23.7144 10.9557 25.7411C10.0898 26.0026 9.17524 25.5146 8.91243 24.6502C8.65162 23.7843 9.13988 22.8715 10.0043 22.6082C17.631 20.2941 27.1124 21.415 33.5949 25.3985C34.3648 25.8725 34.608 26.8806 34.1341 27.6495V27.6492ZM34.3547 21.6949C27.5864 17.6748 16.4195 17.3051 9.95739 19.2664C8.9197 19.5811 7.82232 18.9953 7.50785 17.9576C7.19339 16.9194 7.77869 15.8228 8.81713 15.5073C16.2352 13.2554 28.5669 13.6905 36.3594 18.3165C37.2948 18.8704 37.6007 20.0759 37.0465 21.008C36.4948 21.9414 35.2861 22.2491 34.3557 21.6949H34.3547ZM58.0677 22.4653C54.4416 21.6006 53.7971 20.9937 53.7971 19.7186C53.7971 18.5139 54.9306 17.7031 56.6183 17.7031C58.2533 17.7031 59.8733 18.3187 61.5735 19.5861C61.6237 19.6245 61.6889 19.6398 61.7516 19.6298C61.8168 19.6203 61.8719 19.5854 61.9095 19.533L63.68 17.0373C63.7527 16.9345 63.7326 16.7928 63.6348 16.7143C61.6111 15.0911 59.3341 14.3019 56.6709 14.3019C52.7564 14.3019 50.0204 16.6514 50.0204 20.013C50.0204 23.6178 52.3802 24.8942 56.4578 25.8795C59.9259 26.6787 60.5127 27.3483 60.5127 28.545C60.5127 29.8716 59.3291 30.6966 57.4232 30.6966C55.3067 30.6966 53.5789 29.9819 51.648 28.3118C51.6003 28.2691 51.5351 28.2516 51.4749 28.2541C51.4097 28.2591 51.352 28.2892 51.3119 28.3368L49.3258 30.6991C49.2431 30.7994 49.2531 30.9449 49.3484 31.0301C51.5953 33.0363 54.3588 34.0945 57.343 34.0945C61.561 34.0945 64.2869 31.79 64.2869 28.2215C64.2944 25.2105 62.4913 23.5428 58.0752 22.4685L58.0677 22.4653ZM73.8312 18.8893C72.0031 18.8893 70.5035 19.6095 69.2647 21.0853V19.4242C69.2647 19.293 69.1594 19.1862 69.029 19.1862H65.7815C65.6511 19.1862 65.5457 19.293 65.5457 19.4242V37.8812C65.5457 38.0116 65.6511 38.1194 65.7815 38.1194H69.029C69.1594 38.1194 69.2647 38.0116 69.2647 37.8812V32.0558C70.5035 33.4425 72.0031 34.1221 73.8312 34.1221C77.2292 34.1221 80.6698 31.5066 80.6698 26.5064C80.6748 21.5053 77.2342 18.889 73.8337 18.889L73.8312 18.8893ZM76.8932 26.5064C76.8932 29.0515 75.3258 30.8295 73.0789 30.8295C70.8596 30.8295 69.1844 28.9713 69.1844 26.5064C69.1844 24.0414 70.8596 22.1836 73.0789 22.1836C75.2882 22.1834 76.8932 24.001 76.8932 26.5062V26.5064ZM89.4844 18.8893C85.1084 18.8893 81.6804 22.2586 81.6804 26.5609C81.6804 30.817 85.0859 34.1497 89.4318 34.1497C93.8228 34.1497 97.2608 30.7919 97.2608 26.5064C97.2608 22.2356 93.8453 18.8898 89.4844 18.8898V18.8893ZM89.4844 30.8546C87.1572 30.8546 85.4018 28.9838 85.4018 26.5052C85.4018 24.0153 87.0971 22.2085 89.4318 22.2085C91.774 22.2085 93.5394 24.0785 93.5394 26.5596C93.5394 29.049 91.8341 30.8546 89.4844 30.8546ZM106.605 19.1862H103.031V15.5334C103.031 15.4025 102.926 15.2957 102.795 15.2957H99.5479C99.4175 15.2957 99.3096 15.4025 99.3096 15.5334V19.1862H97.7498C97.6194 19.1862 97.5141 19.293 97.5141 19.4242V22.2145C97.5141 22.3454 97.6194 22.4525 97.7498 22.4525H99.3096V29.6734C99.3096 32.5899 100.762 34.0695 103.628 34.0695C104.792 34.0695 105.757 33.8287 106.667 33.3121C106.743 33.272 106.788 33.1918 106.788 33.1065V30.4483C106.788 30.3681 106.745 30.2903 106.675 30.2477C106.605 30.2026 106.517 30.2001 106.444 30.2377C105.82 30.5511 105.215 30.6966 104.538 30.6966C103.498 30.6966 103.031 30.2226 103.031 29.1644V22.4537H106.605C106.735 22.4537 106.84 22.3469 106.84 22.2157V19.4257C106.845 19.2945 106.74 19.1877 106.607 19.1877L106.605 19.1862ZM119.053 19.2005V18.7518C119.053 17.432 119.559 16.8435 120.693 16.8435C121.37 16.8435 121.914 16.9779 122.524 17.181C122.599 17.2046 122.677 17.1928 122.737 17.1479C122.799 17.103 122.835 17.031 122.835 16.9548V14.2189C122.835 14.1143 122.769 14.0218 122.667 13.9909C122.025 13.7996 121.202 13.6032 119.968 13.6032C116.972 13.6032 115.384 15.2919 115.384 18.485V19.1721H113.824C113.694 19.1721 113.586 19.279 113.586 19.4099V22.2145C113.586 22.3454 113.694 22.4525 113.824 22.4525H115.384V33.588C115.384 33.7209 115.492 33.8262 115.622 33.8262H118.867C119 33.8262 119.106 33.7209 119.106 33.588V22.4532H122.137L126.782 33.588C126.255 34.7566 125.736 34.9898 125.029 34.9898C124.457 34.9898 123.853 34.8193 123.238 34.4807C123.181 34.4506 123.11 34.4456 123.05 34.4632C122.988 34.4858 122.935 34.5309 122.91 34.5911L121.809 37.006C121.756 37.1214 121.801 37.2543 121.912 37.3145C123.06 37.9364 124.096 38.2022 125.377 38.2022C127.775 38.2022 129.101 37.0837 130.267 34.0795L135.9 19.5255C135.93 19.4522 135.92 19.3695 135.875 19.3045C135.832 19.2401 135.759 19.2012 135.682 19.2012H132.301C132.198 19.2012 132.108 19.2657 132.076 19.3607L128.612 29.2496L124.821 19.3542C124.786 19.2622 124.698 19.2012 124.6 19.2012H119.053V19.2005ZM111.836 19.1862H108.588C108.458 19.1862 108.35 19.293 108.35 19.4242V33.588C108.35 33.7209 108.458 33.8262 108.588 33.8262H111.836C111.966 33.8262 112.074 33.7209 112.074 33.588V19.4252C112.074 19.294 111.969 19.1872 111.836 19.1872V19.1862ZM110.231 12.7366C108.944 12.7366 107.901 13.7778 107.901 15.064C107.901 16.3509 108.944 17.3934 110.231 17.3934C111.517 17.3934 112.558 16.3509 112.558 15.064C112.558 13.778 111.515 12.7366 110.231 12.7366ZM138.673 23.7404C137.389 23.7404 136.389 22.7085 136.389 21.4554C136.389 20.2023 137.402 19.1586 138.686 19.1586C139.97 19.1586 140.97 20.1903 140.97 21.4424C140.97 22.6955 139.957 23.7404 138.673 23.7404ZM138.686 19.3858C137.515 19.3858 136.63 20.3161 136.63 21.4554C136.63 22.5942 137.51 23.512 138.673 23.512C139.844 23.512 140.73 22.5824 140.73 21.4424C140.73 20.3036 139.849 19.3858 138.686 19.3858ZM139.192 21.6773L139.839 22.5821H139.293L138.711 21.7521H138.212V22.5821H137.755V20.1837H138.824C139.383 20.1837 139.749 20.4689 139.749 20.9488C139.752 21.3421 139.523 21.5823 139.195 21.6773H139.192ZM138.806 20.5953H138.212V21.3538H138.806C139.102 21.3538 139.28 21.2086 139.28 20.9742C139.28 20.7274 139.102 20.5953 138.806 20.5953Z" fill="#1ED760"/>
</g>
<defs>
<clipPath id="clip0_2033_505">
<rect width="140" height="48" fill="white" transform="translate(0.860352)"/>
</clipPath>
</defs>
</svg>
