<svg width="137" height="40" viewBox="0 0 137 40" fill="none" xmlns="http://www.w3.org/2000/svg">
<rect width="137" height="40" rx="12" fill="#4285F4"/>
<path d="M13.794 25.14C13.0193 25.14 12.3613 25 11.82 24.72C11.2787 24.44 10.7933 24.0293 10.364 23.488L11.456 22.396C11.7267 22.788 12.0487 23.096 12.422 23.32C12.7953 23.5347 13.2713 23.642 13.85 23.642C14.3913 23.642 14.8207 23.53 15.138 23.306C15.4647 23.082 15.628 22.774 15.628 22.382C15.628 22.0553 15.544 21.7893 15.376 21.584C15.208 21.3787 14.984 21.2107 14.704 21.08C14.4333 20.94 14.13 20.8187 13.794 20.716C13.4673 20.604 13.136 20.4827 12.8 20.352C12.4733 20.212 12.17 20.0393 11.89 19.834C11.6193 19.6287 11.4 19.3627 11.232 19.036C11.064 18.7093 10.98 18.294 10.98 17.79C10.98 17.2113 11.12 16.7213 11.4 16.32C11.6893 15.9093 12.0767 15.5967 12.562 15.382C13.0473 15.1673 13.5887 15.06 14.186 15.06C14.83 15.06 15.404 15.186 15.908 15.438C16.4213 15.69 16.8367 16.012 17.154 16.404L16.062 17.496C15.782 17.1787 15.488 16.9453 15.18 16.796C14.8813 16.6373 14.536 16.558 14.144 16.558C13.6587 16.558 13.276 16.656 12.996 16.852C12.7253 17.048 12.59 17.3233 12.59 17.678C12.59 17.9767 12.674 18.2193 12.842 18.406C13.01 18.5833 13.2293 18.7373 13.5 18.868C13.78 18.9893 14.0833 19.106 14.41 19.218C14.746 19.33 15.0773 19.456 15.404 19.596C15.74 19.736 16.0433 19.918 16.314 20.142C16.594 20.3567 16.818 20.6367 16.986 20.982C17.154 21.3273 17.238 21.7613 17.238 22.284C17.238 23.1613 16.9253 23.8567 16.3 24.37C15.684 24.8833 14.8487 25.14 13.794 25.14ZM19.6553 25V15.48H21.1953V25H19.6553ZM18.0453 19.68V18.28H22.8053V19.68H18.0453ZM26.5469 25.14C25.9402 25.14 25.3896 24.986 24.8949 24.678C24.4096 24.37 24.0222 23.9547 23.7329 23.432C23.4529 22.9 23.3129 22.3073 23.3129 21.654C23.3129 20.9913 23.4529 20.3987 23.7329 19.876C24.0222 19.344 24.4096 18.924 24.8949 18.616C25.3896 18.2987 25.9402 18.14 26.5469 18.14C27.0602 18.14 27.5129 18.252 27.9049 18.476C28.3062 18.6907 28.6236 18.9893 28.8569 19.372C29.0902 19.7547 29.2069 20.1887 29.2069 20.674V22.606C29.2069 23.0913 29.0902 23.5253 28.8569 23.908C28.6329 24.2907 28.3202 24.594 27.9189 24.818C27.5176 25.0327 27.0602 25.14 26.5469 25.14ZM26.7989 23.684C27.3682 23.684 27.8256 23.4927 28.1709 23.11C28.5256 22.7273 28.7029 22.2373 28.7029 21.64C28.7029 21.2387 28.6236 20.884 28.4649 20.576C28.3062 20.268 28.0822 20.03 27.7929 19.862C27.5129 19.6847 27.1816 19.596 26.7989 19.596C26.4256 19.596 26.0942 19.6847 25.8049 19.862C25.5249 20.03 25.3009 20.268 25.1329 20.576C24.9742 20.884 24.8949 21.2387 24.8949 21.64C24.8949 22.0413 24.9742 22.396 25.1329 22.704C25.3009 23.012 25.5249 23.2547 25.8049 23.432C26.0942 23.6 26.4256 23.684 26.7989 23.684ZM28.6049 25V23.194L28.8709 21.556L28.6049 19.932V18.28H30.1449V25H28.6049ZM31.854 25V18.28H33.394V25H31.854ZM33.394 21.262L32.862 20.996C32.862 20.1467 33.0487 19.4607 33.422 18.938C33.8047 18.406 34.3787 18.14 35.144 18.14C35.48 18.14 35.7833 18.2007 36.054 18.322C36.3247 18.4433 36.5767 18.6393 36.81 18.91L35.802 19.946C35.6807 19.8153 35.5453 19.722 35.396 19.666C35.2467 19.61 35.074 19.582 34.878 19.582C34.4487 19.582 34.094 19.7173 33.814 19.988C33.534 20.2587 33.394 20.6833 33.394 21.262ZM38.6045 25V15.48H40.1445V25H38.6045ZM36.9945 19.68V18.28H41.7545V19.68H36.9945ZM48.4903 25.14C47.8836 25.14 47.3329 24.986 46.8383 24.678C46.3529 24.37 45.9656 23.9547 45.6763 23.432C45.3963 22.9 45.2563 22.3073 45.2563 21.654C45.2563 20.9913 45.3963 20.3987 45.6763 19.876C45.9656 19.344 46.3529 18.924 46.8383 18.616C47.3329 18.2987 47.8836 18.14 48.4903 18.14C49.0036 18.14 49.4563 18.252 49.8483 18.476C50.2496 18.6907 50.5669 18.9893 50.8003 19.372C51.0336 19.7547 51.1503 20.1887 51.1503 20.674V22.606C51.1503 23.0913 51.0336 23.5253 50.8003 23.908C50.5763 24.2907 50.2636 24.594 49.8623 24.818C49.4609 25.0327 49.0036 25.14 48.4903 25.14ZM48.7423 23.684C49.3116 23.684 49.7689 23.4927 50.1143 23.11C50.4689 22.7273 50.6463 22.2373 50.6463 21.64C50.6463 21.2387 50.5669 20.884 50.4083 20.576C50.2496 20.268 50.0256 20.03 49.7363 19.862C49.4563 19.6847 49.1249 19.596 48.7423 19.596C48.3689 19.596 48.0376 19.6847 47.7483 19.862C47.4683 20.03 47.2443 20.268 47.0763 20.576C46.9176 20.884 46.8383 21.2387 46.8383 21.64C46.8383 22.0413 46.9176 22.396 47.0763 22.704C47.2443 23.012 47.4683 23.2547 47.7483 23.432C48.0376 23.6 48.3689 23.684 48.7423 23.684ZM50.5483 25V23.194L50.8143 21.556L50.5483 19.932V18.28H52.0883V25H50.5483ZM60.1981 25.14C59.6848 25.14 59.2274 25.0327 58.8261 24.818C58.4248 24.594 58.1074 24.2907 57.8741 23.908C57.6501 23.5253 57.5381 23.0913 57.5381 22.606V20.674C57.5381 20.1887 57.6548 19.7547 57.8881 19.372C58.1214 18.9893 58.4388 18.6907 58.8401 18.476C59.2414 18.252 59.6941 18.14 60.1981 18.14C60.8048 18.14 61.3508 18.2987 61.8361 18.616C62.3308 18.924 62.7181 19.344 62.9981 19.876C63.2874 20.3987 63.4321 20.9913 63.4321 21.654C63.4321 22.3073 63.2874 22.9 62.9981 23.432C62.7181 23.9547 62.3308 24.37 61.8361 24.678C61.3508 24.986 60.8048 25.14 60.1981 25.14ZM56.6001 27.8V18.28H58.1401V20.086L57.8741 21.724L58.1401 23.348V27.8H56.6001ZM59.9461 23.684C60.3194 23.684 60.6461 23.6 60.9261 23.432C61.2154 23.2547 61.4394 23.012 61.5981 22.704C61.7661 22.396 61.8501 22.0413 61.8501 21.64C61.8501 21.2387 61.7661 20.884 61.5981 20.576C61.4394 20.268 61.2154 20.03 60.9261 19.862C60.6461 19.6847 60.3194 19.596 59.9461 19.596C59.5728 19.596 59.2414 19.6847 58.9521 19.862C58.6628 20.03 58.4388 20.268 58.2801 20.576C58.1214 20.884 58.0421 21.2387 58.0421 21.64C58.0421 22.0413 58.1214 22.396 58.2801 22.704C58.4388 23.012 58.6628 23.2547 58.9521 23.432C59.2414 23.6 59.5728 23.684 59.9461 23.684ZM64.7212 25V18.28H66.2612V25H64.7212ZM66.2612 21.262L65.7292 20.996C65.7292 20.1467 65.9159 19.4607 66.2892 18.938C66.6719 18.406 67.2459 18.14 68.0112 18.14C68.3472 18.14 68.6505 18.2007 68.9212 18.322C69.1919 18.4433 69.4439 18.6393 69.6772 18.91L68.6692 19.946C68.5479 19.8153 68.4125 19.722 68.2632 19.666C68.1139 19.61 67.9412 19.582 67.7452 19.582C67.3159 19.582 66.9612 19.7173 66.6812 19.988C66.4012 20.2587 66.2612 20.6833 66.2612 21.262ZM73.2973 25.14C72.6439 25.14 72.0513 24.986 71.5193 24.678C70.9873 24.3607 70.5626 23.936 70.2453 23.404C69.9373 22.872 69.7833 22.2793 69.7833 21.626C69.7833 20.9727 69.9373 20.3847 70.2453 19.862C70.5626 19.3393 70.9873 18.924 71.5193 18.616C72.0513 18.2987 72.6439 18.14 73.2973 18.14C73.9599 18.14 74.5573 18.294 75.0893 18.602C75.6213 18.91 76.0413 19.33 76.3493 19.862C76.6666 20.3847 76.8253 20.9727 76.8253 21.626C76.8253 22.2793 76.6666 22.872 76.3493 23.404C76.0413 23.936 75.6213 24.3607 75.0893 24.678C74.5573 24.986 73.9599 25.14 73.2973 25.14ZM73.2973 23.656C73.6799 23.656 74.0159 23.572 74.3053 23.404C74.6039 23.2267 74.8326 22.984 74.9913 22.676C75.1593 22.368 75.2433 22.018 75.2433 21.626C75.2433 21.234 75.1593 20.8887 74.9913 20.59C74.8233 20.2913 74.5946 20.058 74.3053 19.89C74.0159 19.7127 73.6799 19.624 73.2973 19.624C72.9239 19.624 72.5879 19.7127 72.2893 19.89C71.9999 20.058 71.7713 20.2913 71.6033 20.59C71.4446 20.8887 71.3653 21.234 71.3653 21.626C71.3653 22.018 71.4446 22.368 71.6033 22.676C71.7713 22.984 71.9999 23.2267 72.2893 23.404C72.5879 23.572 72.9239 23.656 73.2973 23.656ZM77.434 27.94C76.958 27.94 76.5706 27.8653 76.272 27.716C75.964 27.5667 75.684 27.3473 75.432 27.058L76.426 26.064C76.538 26.2133 76.664 26.3207 76.804 26.386C76.944 26.4607 77.1166 26.498 77.322 26.498C77.574 26.498 77.7886 26.4187 77.966 26.26C78.1526 26.1107 78.246 25.8867 78.246 25.588V18.28H79.786V25.574C79.786 26.0873 79.674 26.5167 79.45 26.862C79.2353 27.2167 78.9506 27.4827 78.596 27.66C78.2413 27.8467 77.854 27.94 77.434 27.94ZM79.044 17.048C78.7826 17.048 78.5633 16.9593 78.386 16.782C78.218 16.6047 78.134 16.3853 78.134 16.124C78.134 15.8627 78.218 15.6433 78.386 15.466C78.5633 15.2887 78.7826 15.2 79.044 15.2C79.3146 15.2 79.534 15.2887 79.702 15.466C79.87 15.6433 79.954 15.8627 79.954 16.124C79.954 16.3853 79.87 16.6047 79.702 16.782C79.534 16.9593 79.3146 17.048 79.044 17.048ZM84.6186 25.14C83.9466 25.14 83.3399 24.9907 82.7986 24.692C82.2666 24.384 81.8419 23.964 81.5246 23.432C81.2166 22.9 81.0626 22.3027 81.0626 21.64C81.0626 20.9773 81.2166 20.3847 81.5246 19.862C81.8326 19.33 82.2479 18.91 82.7706 18.602C83.3026 18.294 83.8906 18.14 84.5346 18.14C85.1599 18.14 85.7106 18.2847 86.1866 18.574C86.6719 18.8633 87.0499 19.26 87.3206 19.764C87.6006 20.268 87.7406 20.842 87.7406 21.486C87.7406 21.598 87.7312 21.7147 87.7126 21.836C87.7032 21.948 87.6846 22.074 87.6566 22.214H82.1406V20.954H86.8586L86.2846 21.458C86.2659 21.0473 86.1866 20.702 86.0466 20.422C85.9066 20.142 85.7059 19.9273 85.4446 19.778C85.1926 19.6287 84.8799 19.554 84.5066 19.554C84.1146 19.554 83.7739 19.638 83.4846 19.806C83.1952 19.974 82.9712 20.212 82.8126 20.52C82.6539 20.8187 82.5746 21.178 82.5746 21.598C82.5746 22.018 82.6586 22.3867 82.8266 22.704C82.9946 23.0213 83.2326 23.2687 83.5406 23.446C83.8486 23.614 84.2032 23.698 84.6046 23.698C84.9499 23.698 85.2672 23.6373 85.5566 23.516C85.8552 23.3947 86.1072 23.2173 86.3126 22.984L87.2926 23.978C86.9659 24.3607 86.5692 24.65 86.1026 24.846C85.6359 25.042 85.1412 25.14 84.6186 25.14ZM92.0691 25.14C91.4064 25.14 90.8044 24.986 90.2631 24.678C89.7311 24.37 89.3111 23.95 89.0031 23.418C88.6951 22.886 88.5411 22.2933 88.5411 21.64C88.5411 20.9773 88.6951 20.3847 89.0031 19.862C89.3111 19.33 89.7311 18.91 90.2631 18.602C90.8044 18.294 91.4064 18.14 92.0691 18.14C92.5918 18.14 93.0771 18.2427 93.5251 18.448C93.9824 18.644 94.3698 18.9287 94.6871 19.302L93.6791 20.324C93.4831 20.0907 93.2451 19.918 92.9651 19.806C92.6944 19.6847 92.3958 19.624 92.0691 19.624C91.6864 19.624 91.3458 19.7127 91.0471 19.89C90.7578 20.058 90.5291 20.2913 90.3611 20.59C90.2024 20.8887 90.1231 21.2387 90.1231 21.64C90.1231 22.032 90.2024 22.382 90.3611 22.69C90.5291 22.9887 90.7578 23.2267 91.0471 23.404C91.3458 23.572 91.6864 23.656 92.0691 23.656C92.3958 23.656 92.6944 23.6 92.9651 23.488C93.2451 23.3667 93.4831 23.1893 93.6791 22.956L94.6871 23.978C94.3698 24.3513 93.9824 24.6407 93.5251 24.846C93.0771 25.042 92.5918 25.14 92.0691 25.14ZM96.71 25V15.48H98.25V25H96.71ZM95.1 19.68V18.28H99.86V19.68H95.1Z" fill="white"/>
<path d="M122.834 20H111.167M122.834 20L118.667 24.1667M122.834 20L118.667 15.8334" stroke="white" stroke-width="1.5" stroke-linecap="round" stroke-linejoin="round"/>
</svg>
