<svg width="246" height="44" viewBox="0 0 246 44" fill="none" xmlns="http://www.w3.org/2000/svg">
<path fill-rule="evenodd" clip-rule="evenodd" d="M53.4414 33.7417L56.1694 29.92C57.8288 31.6549 60.4186 33.1006 63.6746 33.1006C66.4403 33.1006 67.7854 31.8309 67.7854 30.4857C67.7854 26.312 54.1957 29.1783 54.1957 20.2903C54.1957 16.3554 57.59 13.0994 63.1466 13.0994C66.8928 13.0994 70.0106 14.2309 72.3488 16.3932L69.558 20.0766C67.6471 18.304 65.0951 17.4869 62.694 17.4869C60.5317 17.4869 59.3248 18.4423 59.3248 19.8629C59.3248 23.6217 72.8894 21.1074 72.8894 29.92C72.8894 34.2446 69.8094 37.5006 63.4357 37.5006C58.8848 37.5006 55.6288 35.9794 53.4414 33.7417ZM86.2906 37.0732V34.9109C85.1214 36.2183 83.0723 37.5006 80.2688 37.5006C76.51 37.5006 74.75 35.4514 74.75 32.12V19.976H79.2506V30.3474C79.2506 32.7234 80.4951 33.5029 82.406 33.5029C84.1408 33.5029 85.5237 32.5474 86.3031 31.5543V19.976H90.8037V37.0732H86.2906Z" fill="#0A5E58"/>
<path d="M97.8307 34.8732V43.5852H93.3301V19.976H97.8307V22.1383C99.1381 20.4789 101.011 19.5486 103.111 19.5486C107.498 19.5486 110.691 22.8046 110.691 28.4994C110.691 34.1943 107.511 37.488 103.111 37.488C101.087 37.5006 99.2135 36.6457 97.8307 34.8732ZM106.015 28.512C106.015 25.5703 104.28 23.5589 101.69 23.5589C100.244 23.5589 98.5724 24.4137 97.8307 25.5074V31.5669C98.5724 32.6229 100.244 33.5154 101.69 33.5154C104.28 33.5029 106.015 31.4789 106.015 28.512ZM112.326 28.512C112.326 23.5589 115.971 19.5612 121.176 19.5612C126.267 19.5612 129.737 23.3829 129.737 28.9772V29.9703H117.027C117.316 32.1326 119.051 33.9303 121.943 33.9303C123.388 33.9303 125.412 33.2892 126.506 32.2332L128.492 35.1372C126.795 36.696 124.105 37.5132 121.452 37.5132C116.248 37.5006 112.326 33.9932 112.326 28.512ZM121.176 23.1314C118.385 23.1314 117.178 25.2183 116.964 26.9154H125.387C125.274 25.2812 124.143 23.1314 121.176 23.1314Z" fill="#0A5E58"/>
<path fill-rule="evenodd" clip-rule="evenodd" d="M131.887 37.0732V19.976H136.387V22.3143C137.594 20.7932 139.719 19.5486 141.843 19.5486V23.936C141.529 23.8606 141.102 23.8354 140.599 23.8354C139.115 23.8354 137.129 24.6903 136.387 25.784V37.0732H131.887Z" fill="#0A5E58"/>
<path d="M144.333 25.2812C144.333 18.1657 149.538 13.0617 156.653 13.0617C163.806 13.0617 169.011 18.1532 169.011 25.2812C169.011 32.3966 163.806 37.488 156.653 37.488C149.538 37.5006 144.333 32.3966 144.333 25.2812ZM163.844 25.2812C163.844 20.856 161.015 17.5246 156.653 17.5246C152.303 17.5246 149.5 20.856 149.5 25.2812C149.5 29.6686 152.303 33.0377 156.653 33.0377C161.015 33.0377 163.844 29.6686 163.844 25.2812ZM173.172 37.0732V23.8983H170.343V19.9634H173.172V19.0457C173.172 15.4 175.51 13.0994 178.942 13.0994C180.576 13.0994 182.311 13.5269 183.405 14.696L181.708 17.3486C181.243 16.8834 180.652 16.6446 179.835 16.6446C178.59 16.6446 177.71 17.4617 177.71 19.0583V19.976H181.18V23.9109H177.71V37.0857H173.172V37.0732ZM184.75 37.0732V23.8983H181.922V19.9634H184.75V19.0457C184.75 15.3246 187.151 13.0994 190.52 13.0994C191.79 13.0994 192.959 13.3886 193.776 13.8034L192.859 17.0594C192.507 16.808 192.004 16.632 191.413 16.632C190.143 16.632 189.288 17.4869 189.288 19.0457V19.9634H192.758V23.8983H189.288V37.0732H184.75ZM194.908 15.4377C194.908 13.9543 196.152 12.7852 197.598 12.7852C199.082 12.7852 200.288 13.9543 200.288 15.4377C200.288 16.9212 199.082 18.128 197.598 18.128C196.152 18.128 194.908 16.9337 194.908 15.4377ZM195.373 37.0732V19.976H199.874V37.0732H195.373Z" fill="#0A5E58"/>
<path fill-rule="evenodd" clip-rule="evenodd" d="M202.073 28.512C202.073 23.2697 205.857 19.5612 211.137 19.5612C214.645 19.5612 216.769 21.0823 217.901 22.6412L214.959 25.4069C214.142 24.2 212.91 23.5714 211.351 23.5714C208.623 23.5714 206.712 25.5577 206.712 28.5246C206.712 31.504 208.623 33.5154 211.351 33.5154C212.91 33.5154 214.154 32.8114 214.959 31.68L217.901 34.408C216.769 36.0046 214.645 37.5257 211.137 37.5257C205.857 37.5006 202.073 33.7794 202.073 28.512Z" fill="#0A5E58"/>
<path d="M218.479 28.512C218.479 23.5589 222.125 19.5612 227.33 19.5612C232.434 19.5612 235.891 23.3829 235.891 28.9772V29.9703H223.181C223.47 32.1326 225.205 33.9303 228.097 33.9303C229.542 33.9303 231.566 33.2892 232.66 32.2332L234.646 35.1372C232.949 36.696 230.259 37.5132 227.606 37.5132C222.402 37.5006 218.479 33.9932 218.479 28.512ZM227.33 23.1314C224.539 23.1314 223.332 25.2183 223.118 26.9154H231.541C231.428 25.2812 230.297 23.1314 227.33 23.1314ZM241.975 37.0857C240.479 37.0857 239.273 35.8663 239.273 34.3829C239.273 32.8743 240.492 31.68 241.975 31.68C243.484 31.68 244.678 32.8869 244.678 34.3829C244.678 35.8789 243.484 37.0857 241.975 37.0857ZM241.975 32.0446C240.668 32.0446 239.625 33.0754 239.625 34.3829C239.625 35.6777 240.668 36.7337 241.975 36.7337C243.27 36.7337 244.314 35.6777 244.314 34.3829C244.314 33.0754 243.258 32.0446 241.975 32.0446ZM242.717 35.9417L241.913 34.7097H241.347V35.9417H240.932V32.8366H242.202C242.73 32.8366 243.182 33.2012 243.182 33.7794C243.182 34.4709 242.566 34.6972 242.39 34.6972L243.22 35.9417H242.717ZM242.202 33.1886H241.347V34.3326H242.202C242.466 34.3326 242.768 34.0937 242.768 33.7669C242.768 33.44 242.466 33.1886 242.202 33.1886Z" fill="#0A5E58"/>
<path fill-rule="evenodd" clip-rule="evenodd" d="M28.2103 18.3291C27.808 22.2891 26.0983 25.696 23.6846 27.8206C24.0994 28.4994 24.9543 29.8823 25.6834 30.9634C27.3931 33.4903 30.4103 37.5006 30.4103 37.5006C33.616 33.8674 35.2503 27.4811 34.0309 24.7406C33.1257 22.6411 30.0583 19.4983 28.2103 18.3291Z" fill="#0A5E58"/>
<path fill-rule="evenodd" clip-rule="evenodd" d="M26.9156 19.7623C26.9156 19.7623 29.8322 6.21029 17.575 3.28115C12.0059 1.94858 12.471 4.68915 0.314453 0.465149C0.314453 0.465149 3.72131 8.00801 9.74302 9.34058C10.9373 9.60458 12.2573 9.64229 13.6025 9.64229H13.615C13.6276 9.64229 13.6402 9.64229 13.6527 9.64229C13.8539 9.64229 14.0676 9.64229 14.2687 9.64229C14.4825 9.64229 14.6836 9.64229 14.8973 9.64229C14.9099 9.64229 14.935 9.64229 14.9476 9.64229C15.2116 9.64229 15.4756 9.64229 15.727 9.64229C15.7396 9.64229 15.7647 9.64229 15.7773 9.64229C16.3053 9.65486 16.8333 9.66744 17.3613 9.71772C17.3739 9.71772 17.3865 9.71772 17.4116 9.71772C17.6756 9.74286 17.927 9.76801 18.1785 9.80572C18.2036 9.80572 18.2287 9.80572 18.2413 9.80572C19.3727 9.96915 20.4413 10.2834 21.3967 10.8869C23.3453 12.3954 24.6025 15.2994 24.4642 18.5806C24.351 21.2331 23.3453 23.5589 21.8619 25.0549C22.3522 24.112 22.6665 22.9931 22.7293 21.7737C22.8802 18.3669 20.9567 15.5131 18.4425 15.4C18.015 15.3874 17.6002 15.4377 17.2105 15.576C17.3865 16.9463 17.5625 18.4423 17.5499 18.6309C17.5373 18.8446 16.3933 17.7383 15.4253 16.7451C14.407 17.8389 13.703 19.4857 13.6276 21.3589C13.5647 22.8297 13.8916 24.2 14.4825 25.2937C12.7979 23.7097 11.7545 21.0194 11.8927 18.0149C12.0436 14.52 13.7407 11.5783 16.0413 10.3714C15.6767 10.3589 15.3122 10.3589 14.935 10.3589C14.7087 10.3589 14.495 10.3589 14.2687 10.3589C14.0425 10.3589 13.8287 10.3589 13.6025 10.3589C12.8482 10.3589 12.031 10.3463 11.2139 10.2834C9.8436 12.1943 8.95102 14.6583 8.83788 17.3863C8.54874 23.6594 12.3956 28.9269 17.4367 29.1406C22.0505 29.3417 26.0356 25.256 26.9156 19.7623Z" fill="#0A5E58"/>
<path fill-rule="evenodd" clip-rule="evenodd" d="M36.3816 9.70516C36.6456 9.65487 36.9221 9.61716 37.2238 9.59201C40.505 9.39087 40.9198 10.4217 44.5781 8.44801C48.2364 6.4743 49.5187 1.78516 49.5187 1.78516C49.5187 1.78516 46.1873 3.3943 43.6856 3.72116C40.329 4.17373 37.3621 3.1303 33.3141 5.88344C29.0273 8.80001 29.2536 16.9463 29.3038 17.9772C30.2718 18.6937 31.4284 19.7623 32.4467 20.9063C32.4718 20.9314 32.4844 20.9566 32.5096 20.9817C32.6101 21.0823 32.6981 21.1954 32.7861 21.3086C32.8238 21.3589 32.8741 21.4092 32.9118 21.4594C32.9873 21.5474 33.0627 21.648 33.1507 21.7486C33.201 21.8114 33.2513 21.8743 33.3016 21.9372C33.3644 22.0252 33.4398 22.1132 33.5027 22.2012C33.553 22.2766 33.6158 22.3394 33.6661 22.4149C33.729 22.4903 33.7793 22.5783 33.8421 22.6537C33.8924 22.7292 33.9553 22.8046 34.0056 22.8926C34.0558 22.968 34.1061 23.0434 34.1564 23.1063C34.2067 23.1943 34.2696 23.2697 34.3198 23.3577C34.3576 23.4206 34.4078 23.4834 34.4456 23.5463C34.4958 23.6343 34.5461 23.7349 34.5964 23.8229C34.6216 23.8732 34.6593 23.9234 34.6844 23.9737C34.7598 24.112 34.8227 24.2503 34.8856 24.3886C34.9484 24.5394 35.0113 24.7029 35.0616 24.8663C35.0741 24.9166 35.0867 24.9669 35.0993 25.0172C35.137 25.1429 35.1621 25.256 35.1873 25.3817C35.2627 25.7212 35.3004 26.0732 35.3256 26.4503C35.9416 26.6389 36.5953 26.7394 37.2616 26.7269C41.561 26.6766 44.9804 22.2263 44.8924 16.808C44.8547 14.2057 44.0124 11.8549 42.6798 10.12C41.9004 10.3714 41.2718 10.4469 40.6684 10.4469C40.3164 10.4469 39.9644 10.4217 39.6124 10.3966C41.2844 11.616 42.4033 14.1177 42.3656 16.9966C42.3278 19.6617 41.297 21.9749 39.801 23.2572C40.3164 22.3646 40.6684 21.2583 40.7438 20.064C40.9576 16.8457 39.2101 14.1177 36.8341 13.9543C36.1804 13.9166 35.5644 14.0674 34.9861 14.3817C35.1244 15.5006 35.3256 17.1223 35.3256 17.2983C35.313 17.4743 34.2696 16.4434 33.5153 15.6766C32.8741 16.5063 32.4216 17.5874 32.233 18.8069C32.1324 18.2034 32.0696 17.5749 32.0821 16.9212C32.1324 13.288 33.9804 10.3212 36.3816 9.70516Z" fill="#0A5E58"/>
</svg>
