<svg width="99" height="48" viewBox="0 0 99 48" fill="none" xmlns="http://www.w3.org/2000/svg">
<g clip-path="url(#clip0_2033_509)">
<path fill-rule="evenodd" clip-rule="evenodd" d="M79.7932 20.5972C80.1674 21.2429 80.2898 21.9774 80.3303 22.8032L80.3834 23.9039V31.6007L80.4377 32.7025C80.5462 34.502 81.8733 35.8325 83.6866 35.9457L84.7827 36V23.9039L84.837 22.8032C84.882 21.9867 85.0033 21.2382 85.3833 20.588C85.7705 19.921 86.3263 19.3677 86.995 18.9835C87.6637 18.5993 88.4217 18.3978 89.1929 18.3992C89.9641 18.4006 90.7214 18.6049 91.3887 18.9915C92.056 19.3781 92.6098 19.9335 92.9946 20.6018C93.3688 21.2475 93.4855 21.9959 93.5305 22.8032L93.5848 23.9005V31.6007L93.6391 32.7025C93.7523 34.5112 95.0689 35.8418 96.888 35.9457L97.9841 36V22.8032C97.9841 20.4697 97.0573 18.2317 95.4076 16.5813C93.7578 14.9309 91.5202 14.0032 89.1866 14.0023C87.9377 14.001 86.7028 14.2662 85.5645 14.7803C84.4262 15.2944 83.4108 16.0454 82.5859 16.9833C81.7607 16.0458 80.7452 15.2949 79.6071 14.7807C78.4689 14.2665 77.2342 14.0007 75.9852 14.0012C74.1581 14.0012 72.4626 14.5555 71.0581 15.513C70.2011 14.5567 68.2839 14.0012 67.1832 14.0012V36L68.2839 35.9457C70.1249 35.8244 71.4554 34.5297 71.527 32.7025L71.5859 31.6007V23.9039L71.6402 22.8032C71.6864 21.9728 71.8019 21.2429 72.1773 20.5926C72.5648 19.9261 73.1204 19.3728 73.7886 18.9882C74.4568 18.6035 75.2142 18.4009 75.9852 18.4005C76.7568 18.4006 77.5148 18.6037 78.1832 18.9893C78.8516 19.3748 79.4068 19.9294 79.7932 20.5972ZM4.48524 35.9469L5.58594 36H22.0848L22.0305 34.9028C21.8815 33.0941 20.6006 31.7728 18.7862 31.655L17.6855 31.6007H7.78732L20.9841 18.3993L20.9298 17.3032C20.8443 15.4761 19.5092 14.1559 17.6855 14.0554L16.5848 14.0058L0.0859375 14.0012L0.140221 15.1019C0.284594 16.8932 1.58394 18.2422 3.3834 18.3462L4.48524 18.4005H14.3834L1.18663 31.6018L1.24091 32.7025C1.34948 34.5159 2.65807 35.8291 4.48524 35.9457V35.9469ZM62.8647 17.2212C63.8863 18.2426 64.6967 19.4552 65.2496 20.7898C65.8025 22.1244 66.087 23.5548 66.087 24.9994C66.087 26.444 65.8025 27.8744 65.2496 29.209C64.6967 30.5436 63.8863 31.7562 62.8647 32.7776C60.8008 34.8399 58.0025 35.9983 55.0848 35.9983C52.1671 35.9983 49.3688 34.8399 47.3049 32.7776C43.0095 28.4823 43.0095 21.5166 47.3049 17.2212C48.3255 16.2002 49.5373 15.3902 50.871 14.8375C52.2047 14.2848 53.6342 14.0002 55.0779 14C56.5239 13.999 57.9559 14.2831 59.2921 14.836C60.6282 15.3889 61.8422 16.1999 62.8647 17.2224V17.2212ZM59.752 20.3362C60.9893 21.5744 61.6843 23.2531 61.6843 25.0035C61.6843 26.7538 60.9893 28.4326 59.752 29.6707C58.5139 30.908 56.8351 31.6029 55.0848 31.6029C53.3344 31.6029 51.6557 30.908 50.4175 29.6707C49.1803 28.4326 48.4853 26.7538 48.4853 25.0035C48.4853 23.2531 49.1803 21.5744 50.4175 20.3362C51.6557 19.099 53.3344 18.404 55.0848 18.404C56.8351 18.404 58.5139 19.099 59.752 20.3362ZM31.9922 14C33.4359 14.0004 34.8655 14.2851 36.1992 14.8381C37.5329 15.391 38.7446 16.2012 39.7652 17.2224C44.0617 21.5166 44.0617 28.4834 39.7652 32.7776C37.7012 34.8399 34.9029 35.9983 31.9852 35.9983C29.0676 35.9983 26.2693 34.8399 24.2053 32.7776C19.91 28.4823 19.91 21.5166 24.2053 17.2212C25.226 16.2002 26.4377 15.3902 27.7714 14.8375C29.1051 14.2848 30.5346 14.0002 31.9783 14H31.9922ZM36.6525 20.3339C37.8901 21.5721 38.5853 23.2511 38.5853 25.0017C38.5853 26.7524 37.8901 28.4314 36.6525 29.6696C35.4143 30.9068 33.7356 31.6018 31.9852 31.6018C30.2349 31.6018 28.5561 30.9068 27.318 29.6696C26.0808 28.4314 25.3858 26.7527 25.3858 25.0023C25.3858 23.252 26.0808 21.5732 27.318 20.335C28.5561 19.0978 30.2349 18.4028 31.9852 18.4028C33.7356 18.4028 35.4143 19.0978 36.6525 20.335V20.3339Z" fill="#2D8CFF"/>
</g>
<defs>
<clipPath id="clip0_2033_509">
<rect width="98" height="48" fill="white" transform="translate(0.0859375)"/>
</clipPath>
</defs>
</svg>
